<?xml version="1.0" encoding="UTF-8"?>
<svg xmlns="http://www.w3.org/2000/svg" xmlns:xlink="http://www.w3.org/1999/xlink" xmlns:svg="http://www.w3.org/2000/svg" xmlns:sodipodi="http://sodipodi.sourceforge.net/DTD/sodipodi-0.dtd" xmlns:rdf="http://www.w3.org/1999/02/22-rdf-syntax-ns#" xmlns:inkscape="http://www.inkscape.org/namespaces/inkscape" xmlns:dc="http://purl.org/dc/elements/1.1/" xmlns:cc="http://creativecommons.org/ns#" version="1.1" viewBox="0 0 776.7 700.2">
  <defs>
    <style>
      .cls-1, .cls-2, .cls-3, .cls-4, .cls-5, .cls-6, .cls-7, .cls-8, .cls-9, .cls-10 {
        fill: none;
      }

      .cls-2 {
        stroke: #a5c830;
      }

      .cls-2, .cls-3, .cls-11, .cls-12, .cls-13, .cls-14, .cls-15, .cls-9, .cls-10 {
        stroke-miterlimit: 3;
      }

      .cls-2, .cls-16, .cls-17, .cls-18, .cls-5, .cls-6, .cls-7, .cls-8, .cls-19, .cls-9 {
        stroke-linecap: round;
      }

      .cls-2, .cls-9 {
        stroke-width: 4.3px;
      }

      .cls-20, .cls-11 {
        fill: #7c7c7c;
      }

      .cls-3 {
        stroke: #0a0d05;
        stroke-linecap: square;
        stroke-width: 4.3px;
      }

      .cls-21, .cls-11 {
        stroke: #4d4d4d;
      }

      .cls-21, .cls-17, .cls-18, .cls-4, .cls-5, .cls-22, .cls-23, .cls-6, .cls-7, .cls-24, .cls-25, .cls-8, .cls-19 {
        stroke-linejoin: round;
      }

      .cls-21, .cls-24 {
        stroke-width: 1.9px;
      }

      .cls-16 {
        stroke: #fff;
        stroke-miterlimit: 7.5;
        stroke-width: .2px;
      }

      .cls-16, .cls-17, .cls-18, .cls-26, .cls-27, .cls-19 {
        fill: #fff;
      }

      .cls-11, .cls-12, .cls-13, .cls-14, .cls-15 {
        stroke-width: 2.1px;
      }

      .cls-28 {
        fill: #4158a5;
      }

      .cls-28, .cls-29, .cls-30, .cls-31, .cls-32, .cls-33, .cls-34, .cls-35, .cls-36, .cls-37 {
        isolation: isolate;
      }

      .cls-28, .cls-29, .cls-31, .cls-33, .cls-34, .cls-35, .cls-37 {
        font-weight: 700;
      }

      .cls-28, .cls-29, .cls-31, .cls-34, .cls-35, .cls-37 {
        font-family: Arial-BoldMT, Arial;
      }

      .cls-28, .cls-34, .cls-37 {
        font-size: 21.4px;
      }

      .cls-29 {
        fill: #a5c830;
      }

      .cls-29, .cls-31, .cls-35 {
        font-size: 17.2px;
      }

      .cls-12, .cls-13, .cls-14, .cls-37 {
        fill: #b93f26;
      }

      .cls-12, .cls-24, .cls-25 {
        stroke: #7c7c7c;
      }

      .cls-17 {
        stroke-width: 2.2px;
      }

      .cls-17, .cls-18, .cls-13, .cls-5, .cls-8, .cls-19 {
        stroke: #000;
      }

      .cls-18, .cls-5 {
        stroke-width: 2.1px;
      }

      .cls-30 {
        font-size: 9.5px;
      }

      .cls-30, .cls-36 {
        font-family: ArialMT, Arial;
      }

      .cls-4 {
        stroke: #c4cbe1;
        stroke-width: 4.8px;
      }

      .cls-26 {
        opacity: .7;
      }

      .cls-22, .cls-23, .cls-14, .cls-15 {
        stroke: #acacac;
      }

      .cls-22, .cls-25 {
        stroke-width: 1.9px;
      }

      .cls-23 {
        stroke-width: 1.9px;
      }

      .cls-31 {
        fill: #6b512e;
      }

      .cls-38 {
        fill: #4d4d4d;
      }

      .cls-39 {
        fill: #ccc;
      }

      .cls-6 {
        stroke: #3a53a4;
      }

      .cls-6, .cls-10 {
        stroke-width: 4.7px;
      }

      .cls-40 {
        clip-path: url(#clippath-1);
      }

      .cls-15, .cls-41 {
        fill: #acacac;
      }

      .cls-33 {
        font-family: Arial-BoldItalicMT, Arial;
        font-size: 40px;
        font-style: italic;
      }

      .cls-7 {
        stroke: #ffa300;
      }

      .cls-7, .cls-8 {
        stroke-width: .8px;
      }

      .cls-35 {
        fill: #0a0d05;
      }

      .cls-19 {
        stroke-width: 1.7px;
      }

      .cls-9 {
        stroke: #6b512e;
      }

      .cls-10 {
        stroke: #b93f26;
      }

      .cls-36 {
        font-size: 16.9px;
      }

      .cls-42 {
        clip-path: url(#clippath);
      }
    </style>
    <clipPath id="clippath">
      <rect class="cls-1" x="1064.6" y="788.2" width="0" height="3"/>
    </clipPath>
    <clipPath id="clippath-1">
      <rect class="cls-1" x="713.4" y="759.5" width="6" height=".6"/>
    </clipPath>
  </defs>
  <!-- Generator: Adobe Illustrator 28.7.4, SVG Export Plug-In . SVG Version: 1.2.0 Build 166)  -->
  <g>
    <g id="Layer_1">
      <sodipodi:namedview id="namedview125" bordercolor="#666666" borderopacity="1" gridtolerance="10" guidetolerance="10" inkscape:current-layer="Layer_1" inkscape:cx="263.35772" inkscape:cy="322.40233" inkscape:deskcolor="#d1d1d1" inkscape:document-units="mm" inkscape:pagecheckerboard="0" inkscape:pageopacity="0" inkscape:pageshadow="2" inkscape:showpageshadow="2" inkscape:snap-bbox="true" inkscape:snap-bbox-midpoints="false" inkscape:window-height="1010" inkscape:window-maximized="1" inkscape:window-width="1920" inkscape:window-x="1145" inkscape:window-y="185" inkscape:zoom="0.5334949" objecttolerance="10" pagecolor="#ffffff" showgrid="false" units="mm"/>
      <g id="_x3C_defs">
        <inkscape:path-effect id="path-effect8670" copytype="single_stretched" effect="skeletal" fuse_tolerance="0" hide_knot="false" is_visible="true" lpeversion="0" normal_offset="0" pattern="M 823.27657,595.27353 H 1243.2844" prop_scale="1.0000001" prop_units="false" scale_y_rel="false" spacing="0" tang_offset="0" vertical_pattern="false"/>
        <inkscape:path-effect id="path-effect8218" copytype="single_stretched" effect="skeletal" fuse_tolerance="0" hide_knot="false" is_visible="true" lpeversion="0" normal_offset="0" pattern="M 823.27657,620.50371 H 1243.2844" prop_scale="1.0000001" prop_units="false" scale_y_rel="false" spacing="0" tang_offset="0" vertical_pattern="false"/>
        <inkscape:path-effect id="path-effect8218-9" copytype="single_stretched" effect="skeletal" fuse_tolerance="0" hide_knot="false" is_visible="true" lpeversion="0" normal_offset="0" pattern="m 804.4124,639.36788 h 420.0078" prop_scale="1.0000001" prop_units="false" scale_y_rel="false" spacing="0" tang_offset="0" vertical_pattern="false"/>
        <inkscape:path-effect id="path-effect8670-9" copytype="single_stretched" effect="skeletal" fuse_tolerance="0" hide_knot="false" is_visible="true" lpeversion="0" normal_offset="0" pattern="M 793.18222,613.79374 H 1213.1896" prop_scale="1.0000001" prop_units="false" scale_y_rel="false" spacing="0" tang_offset="0" vertical_pattern="false"/>
        <inkscape:path-effect id="path-effect8670-9-5" copytype="single_stretched" effect="skeletal" fuse_tolerance="0" hide_knot="false" is_visible="true" lpeversion="0" normal_offset="0" pattern="M 890.63437,400.52586 H 1310.6417" prop_scale="1.0000001" prop_units="false" scale_y_rel="false" spacing="0" tang_offset="0" vertical_pattern="false"/>
        <inkscape:path-effect id="path-effect8218-9-5" copytype="single_stretched" effect="skeletal" fuse_tolerance="0" hide_knot="false" is_visible="true" lpeversion="0" normal_offset="0" pattern="M 901.86455,426.1 H 1321.8723" prop_scale="1.0000001" prop_units="false" scale_y_rel="false" spacing="0" tang_offset="0" vertical_pattern="false"/>
        <inkscape:path-effect id="path-effect8670-2" copytype="single_stretched" effect="skeletal" fuse_tolerance="0" hide_knot="false" is_visible="true" lpeversion="0" normal_offset="0" pattern="M 872.68798,425.02887 H 1292.6958" prop_scale="1.0000001" prop_units="false" scale_y_rel="false" spacing="0" tang_offset="0" vertical_pattern="false"/>
        <inkscape:path-effect id="path-effect8218-0" copytype="single_stretched" effect="skeletal" fuse_tolerance="0" hide_knot="false" is_visible="true" lpeversion="0" normal_offset="0" pattern="M 872.68798,494.34776 H 1292.6958" prop_scale="1.0000001" prop_units="false" scale_y_rel="false" spacing="0" tang_offset="0" vertical_pattern="false"/>
        <inkscape:path-effect id="path-effect8670-9-5-6" copytype="single_stretched" effect="skeletal" fuse_tolerance="0" hide_knot="false" is_visible="true" lpeversion="0" normal_offset="0" pattern="m 1639.1161,401.73936 h 420.0074" prop_scale="1.0000001" prop_units="false" scale_y_rel="false" spacing="0" tang_offset="0" vertical_pattern="false"/>
        <inkscape:path-effect id="path-effect8218-9-5-5" copytype="single_stretched" effect="skeletal" fuse_tolerance="0" hide_knot="false" is_visible="true" lpeversion="0" normal_offset="0" pattern="m 1650.3463,427.3135 h 420.0078" prop_scale="1.0000001" prop_units="false" scale_y_rel="false" spacing="0" tang_offset="0" vertical_pattern="false"/>
        <inkscape:path-effect id="path-effect8670-2-6" copytype="single_stretched" effect="skeletal" fuse_tolerance="0" hide_knot="false" is_visible="true" lpeversion="0" normal_offset="0" pattern="m 1623.1697,424.24237 h 420.0079" prop_scale="1.0000001" prop_units="false" scale_y_rel="false" spacing="0" tang_offset="0" vertical_pattern="false"/>
        <inkscape:path-effect id="path-effect8218-0-0" copytype="single_stretched" effect="skeletal" fuse_tolerance="0" hide_knot="false" is_visible="true" lpeversion="0" normal_offset="0" pattern="m 1623.1697,493.56126 h 420.0079" prop_scale="1.0000001" prop_units="false" scale_y_rel="false" spacing="0" tang_offset="0" vertical_pattern="false"/>
        <inkscape:path-effect id="path-effect8670-9-4" copytype="single_stretched" effect="skeletal" fuse_tolerance="0" hide_knot="false" is_visible="true" lpeversion="0" normal_offset="0" pattern="m 1541.664,615.00724 h 420.0074" prop_scale="1.0000001" prop_units="false" scale_y_rel="false" spacing="0" tang_offset="0" vertical_pattern="false"/>
        <inkscape:path-effect id="path-effect8218-9-1" copytype="single_stretched" effect="skeletal" fuse_tolerance="0" hide_knot="false" is_visible="true" lpeversion="0" normal_offset="0" pattern="M 1552.8942,640.58138 H 1972.902" prop_scale="1.0000001" prop_units="false" scale_y_rel="false" spacing="0" tang_offset="0" vertical_pattern="false"/>
        <inkscape:path-effect id="path-effect8670-1" copytype="single_stretched" effect="skeletal" fuse_tolerance="0" hide_knot="false" is_visible="true" lpeversion="0" normal_offset="0" pattern="m 1571.7583,596.48703 h 420.0079" prop_scale="1.0000001" prop_units="false" scale_y_rel="false" spacing="0" tang_offset="0" vertical_pattern="false"/>
        <inkscape:path-effect id="path-effect8218-5" copytype="single_stretched" effect="skeletal" fuse_tolerance="0" hide_knot="false" is_visible="true" lpeversion="0" normal_offset="0" pattern="m 1571.7583,621.71721 h 420.0079" prop_scale="1.0000001" prop_units="false" scale_y_rel="false" spacing="0" tang_offset="0" vertical_pattern="false"/>
      </g>
      <g class="cls-42">
        <g id="g1118">
          <path id="path1116" class="cls-8" d="M1063.1,790.6h-.1c0,.1-1.2-.2-1.2-.2l-.4-.4v-.7c-.1,0,0-.2,0-.2h.5c0-.1.8,0,.8,0l.5.5v.6l-.2.4Z" inkscape:connector-curvature="0"/>
        </g>
      </g>
      <g class="cls-40">
        <g id="g226636">
          <path id="path226634" class="cls-7" d="M718.9,763c0,2.9-4.3,2.9-4.3,0s4.3-2.9,4.3,0" inkscape:connector-curvature="0"/>
        </g>
      </g>
      <rect id="rect64" class="cls-16" x=".1" y=".1" width="776.5" height="699.9" inkscape:export-xdpi="400" inkscape:export-ydpi="400"/>
      <path id="path64" class="cls-17" d="M160.2,271.8h597.4V30.9H160.2v240.9Z" inkscape:connector-curvature="0" sodipodi:nodetypes="ccccc"/>
      <path id="path66" class="cls-18" d="M160,514.5h597.6v-242.2H160v242.2Z" inkscape:connector-curvature="0" sodipodi:nodetypes="ccccc"/>
      <path id="path99" class="cls-39" d="M265.6,421.9l-2,11.9,23.3-39.9-23.2-37.9,1.8,10.4-15.5-.2v-93h-89.1s0,240.6,0,240.6h89.1v-91.8" inkscape:connector-curvature="0" sodipodi:nodetypes="ccccccccccc"/>
      <path id="path69" class="cls-39" d="M689.4,421.9l-1.5,11.9,20-39.9-20-37.9,1.4,10.4-11.1-.2v-93h-115.8s0,240.6,0,240.6h115.8v-91.8" sodipodi:nodetypes="ccccccccccc"/>
      <path id="path70" class="cls-19" d="M159.9,653.3h597.9v-138.3H159.9v138.3Z" inkscape:connector-curvature="0" sodipodi:nodetypes="ccccc"/>
      <g id="text71" class="cls-32">
        <text class="cls-34" transform="translate(49.5 378.5)"><tspan x="0" y="0">Growth / </tspan></text>
        <text class="cls-34" transform="translate(45.9 405.1)"><tspan x="0" y="0">twig NSC </tspan></text>
        <text class="cls-34" transform="translate(51.8 431.8)"><tspan x="0" y="0">reserves</tspan></text>
      </g>
      <g id="text74" class="cls-32">
        <text class="cls-33" transform="translate(163.3 62.3)"><tspan x="0" y="0">a</tspan></text>
      </g>
      <g id="text75" class="cls-32">
        <text class="cls-33" transform="translate(163.3 307.5)"><tspan x="0" y="0">b</tspan></text>
      </g>
      <g id="text76" class="cls-32">
        <text class="cls-33" transform="translate(163.3 543)"><tspan x="0" y="0">c</tspan></text>
      </g>
      <g id="text77" class="cls-32">
        <text class="cls-28" transform="translate(26.2 169.8)"><tspan x="0" y="0">Temperature </tspan></text>
      </g>
      <g id="text77-7" class="cls-32">
        <text class="cls-34" transform="translate(434.3 681.1)"><tspan x="0" y="0">Time</tspan></text>
      </g>
      <g id="text79" class="cls-32">
        <text class="cls-29" transform="translate(347.5 333.1)"><tspan x="0" y="0">Primary growth</tspan></text>
      </g>
      <g id="text81" class="cls-32">
        <text class="cls-31" transform="translate(366.9 379.9)"><tspan x="0" y="0">Secondary growth</tspan></text>
      </g>
      <g id="text83" class="cls-32">
        <text class="cls-34" transform="translate(75.3 548.9)"><tspan x="0" y="0">GSL</tspan></text>
      </g>
      <g id="text84" class="cls-32">
        <text class="cls-37" transform="translate(61.5 226.2)"><tspan x="0" y="0">Water</tspan></text>
        <text class="cls-37" transform="translate(36.1 252.9)"><tspan x="0" y="0">availability</tspan></text>
      </g>
      <path id="path84" class="cls-6" d="M196.3,207l11.5,9.9,5-20.9,7,17.9,8.9-14.9,11.9,1.8,15.9-43.7,5,21.9,9.9-31.8,9.9-12.9,11.9,31.8,8-18.9,6,20.9,12.9-24.9,12.9,17.9,4,8,18.9-56.7,12.9,8,22.9-32.8,10.9,13.9,21.9-42.7,5-15.9,4,23.9,12.9-16.9,5,30.8,5-12.9,13.9,25.8,25.8-29.8,5,18.9,7,25.8,1-17.9,13.9-42.7,13.9,38.8,27.8,22.9,7-16.9,9.9,33.8,9.9,16.9,7-18.9s13.9,45.7,12.9,34.8c-1-10.9,5-24.9,5-24.9l9.9,32.8,7-11.9,8.9,29.8,9.9-28.8,4-17.9,7,28.8,6,26.8,2.5-28.8,2.5,36.8,9.9-40.8,7,37.8,6.5-24.4,7.5,21.4,6.1-11.6,6.8,19.7,2.2,16.2,5.6-12.1,7.2,23.2,7.1-18.9" sodipodi:nodetypes="ccccccccccccccccccccccccccccccccccccccscccccccccccccccccccc"/>
      <path id="path85" class="cls-10" d="M195.4,243.5c92.4-39,104.2-41.3,188.4-73.6,36.4-13.9,66,52.2,91.5,56.7,35,6.1,44.9-30.7,85.5-32.8,28.9-1.5,50.4,33.5,83.5,46.7,19.3,7.7,83.1,8,96,7" sodipodi:nodetypes="cssssc"/>
      <path id="path87" class="cls-2" d="M286.8,513.7c26.1-56,15.8-182.6,48.4-179.3,28.9,2.4-12.5,150.6,182.1,178.6" inkscape:connector-curvature="0" sodipodi:nodetypes="ccc"/>
      <path id="path88" class="cls-9" d="M323.2,512.9c10.3-34.5,25.5-122.2,48.5-125.1,33.2-2.6,39.5,105.7,86.5,105.4,34.7-1.5,32.1-26.6,70.3-29.5,28.8-2,72.5,37.8,145.7,49.3" sodipodi:nodetypes="ccccc"/>
      <path id="path90" class="cls-3" d="M162,399.8c8.2,1.9,84.5,21.8,106.7,5.2,11-8.2,15-17.2,24.8-28.8,26.8-29.7,73.7,131.2,125.2,115.4,50.2-20.5,151.3-133.5,215.1-165.2,29.8-12.7,57.6,60,121.5,73.7" inkscape:connector-curvature="0" sodipodi:nodetypes="cscccc"/>
      <g id="text90" class="cls-32">
        <text class="cls-35" transform="translate(273.1 361.6)"><tspan x="0" y="0">NSC </tspan></text>
      </g>
      <g id="text95" class="cls-32">
        <text class="cls-36" transform="translate(32.3 574.9)"><tspan x="0" y="0">Meteorological</tspan></text>
      </g>
      <g id="text96" class="cls-32">
        <text class="cls-36" transform="translate(62.7 603.4)"><tspan x="0" y="0">Vegetative</tspan></text>
      </g>
      <g id="text97" class="cls-32">
        <text class="cls-36" transform="translate(59.8 635)"><tspan x="0" y="0">Productive</tspan></text>
      </g>
      <rect id="rect99" class="cls-41" x="324.6" y="617.9" width="353.3" height="22.5"/>
      <path id="path102" class="cls-12" d="M623.4,506.9v16" sodipodi:nodetypes="cc"/>
      <path id="path103" class="cls-11" d="M286.6,506.9v16" sodipodi:nodetypes="cc"/>
      <path id="path105" class="cls-14" d="M677.4,506.9v16" sodipodi:nodetypes="cc"/>
      <path id="path106" class="cls-15" d="M324.1,506.9v16" sodipodi:nodetypes="cc"/>
      <g id="text107" class="cls-32">
        <text class="cls-30" transform="translate(197.7 282.3)"><tspan x="0" y="0">Lagged</tspan></text>
        <text class="cls-30" transform="translate(189.7 294.2)"><tspan x="0" y="0">effects (t-1)</tspan></text>
      </g>
      <g id="text109" class="cls-32">
        <text class="cls-30" transform="translate(603.8 284.1)"><tspan x="0" y="0">Lagged</tspan></text>
        <text class="cls-30" transform="translate(594.5 295.9)"><tspan x="0" y="0">effects (t+1)</tspan></text>
      </g>
      <path id="path109" class="cls-13" d="M167.1,570.6h-16" sodipodi:nodetypes="cc"/>
      <path id="path111" class="cls-13" d="M711.9,506.9v16" sodipodi:nodetypes="cc"/>
      <path id="path112" class="cls-13" d="M167.1,599.1h-16" sodipodi:nodetypes="cc"/>
      <path id="path114" class="cls-13" d="M167.1,629.1h-16" sodipodi:nodetypes="cc"/>
      <path id="path115" class="cls-13" d="M234.1,506.9v16" sodipodi:nodetypes="cc"/>
      <path id="path115-0" class="cls-13" d="M167.8,196.9h-16" sodipodi:nodetypes="cc"/>
      <g id="text115" class="cls-32">
        <text class="cls-30" transform="translate(222.5 534.3)"><tspan x="0" y="0" xml:space="preserve"> t &gt; X째C</tspan></text>
      </g>
      <g id="text115-4" class="cls-32">
        <text class="cls-30" transform="translate(115.8 200.8)"><tspan x="0" y="0" xml:space="preserve"> t &gt; X째C</tspan></text>
      </g>
      <g id="text116" class="cls-32">
        <text class="cls-30" transform="translate(267.3 534.3)"><tspan x="0" y="0">Budburst</tspan></text>
      </g>
      <g id="text118" class="cls-32">
        <text class="cls-30" transform="translate(308.5 531.3)"><tspan x="0" y="0">Growth </tspan></text>
        <text class="cls-30" transform="translate(313.5 543.2)"><tspan x="0" y="0">onset</tspan></text>
      </g>
      <g id="text121" class="cls-32">
        <text class="cls-30" transform="translate(614.2 531.3)"><tspan x="0" y="0">Leaf</tspan></text>
        <text class="cls-30" transform="translate(598.1 543.2)"><tspan x="0" y="0">senescence</tspan></text>
      </g>
      <g id="text122" class="cls-32">
        <text class="cls-30" transform="translate(660.9 531.3)"><tspan x="0" y="0">Growth </tspan></text>
        <text class="cls-30" transform="translate(657.5 543.2)"><tspan x="0" y="0">cessation</tspan></text>
      </g>
      <g id="text123" class="cls-32">
        <text class="cls-30" transform="translate(696.8 534.3)"><tspan x="0" y="0">t &lt; X째C</tspan></text>
      </g>
      <path id="path123" class="cls-21" d="M233.6,579.4v-40.3"/>
      <path id="path124" class="cls-21" d="M712.1,581.5v-42.4" sodipodi:nodetypes="cc"/>
      <path id="path126" class="cls-25" d="M623.6,609.7v-62.3" sodipodi:nodetypes="cc"/>
      <path id="path127" class="cls-24" d="M286.5,610.4v-71.3" sodipodi:nodetypes="cc"/>
      <path id="path129" class="cls-23" d="M325.1,640.3v-94.1" sodipodi:nodetypes="cc"/>
      <path id="path130" class="cls-22" d="M677.6,640.4v-93" sodipodi:nodetypes="cc"/>
      <rect id="rect134" class="cls-27" x="675.2" y="557.2" width="4.9" height="26.5"/>
      <rect id="rect130" class="cls-27" x="284.7" y="557.2" width="4.9" height="26.5"/>
      <rect id="rect131" class="cls-27" x="322.7" y="557.2" width="4.9" height="26.5"/>
      <rect id="rect132" class="cls-27" x="322.7" y="585.7" width="4.9" height="26.5"/>
      <rect id="rect133" class="cls-27" x="621.2" y="557.2" width="4.9" height="26.5"/>
      <rect id="rect97" class="cls-38" x="232.7" y="559.7" width="479.1" height="21.9"/>
      <rect id="rect98" class="cls-20" x="287" y="587.8" width="336.6" height="22.6"/>
      <g id="flowRoot6584">
        <g id="flowRegion6586">
          <rect id="rect6588" x="395.7" y="542.9" width="11.9" height="35.5"/>
        </g>
      </g>
      <path id="path1" class="cls-5" d="M160,514.5h597.6v-242.2H160v242.2Z" inkscape:connector-curvature="0" sodipodi:nodetypes="ccccc"/>
      <path id="path4" class="cls-4" d="M193.9,205l13.9,11.9,5-20.9,7,17.9,8.9-14.9,6,.9"/>
      <path id="path7" class="cls-4" d="M740.7,209.9l-8,21.3-7.2-23.2-5.6,12.1-2.2-16.2-3.4-9.8"/>
      <path id="path115-0-2" data-name="path115-0" class="cls-13" d="M159.8,57.3h-16" sodipodi:nodetypes="cc"/>
      <g id="text115-4-2" data-name="text115-4" class="cls-32">
        <text class="cls-30" transform="translate(107.9 61.2)"><tspan x="0" y="0" xml:space="preserve"> t &lt; X째C</tspan></text>
      </g>
      <rect class="cls-26" x="413.5" y="37.5" width="168.4" height="18.9"/>
    </g>
  </g>
</svg>