<?xml version="1.0" encoding="UTF-8"?><svg id="Layer_1" xmlns="http://www.w3.org/2000/svg" xmlns:xlink="http://www.w3.org/1999/xlink" viewBox="0 0 505.07 361.07"><defs><style>.cls-1{letter-spacing:-.04em;}.cls-2{font-family:Symbol, Symbol;}.cls-2,.cls-3,.cls-4,.cls-5,.cls-6{fill:#000;}.cls-2,.cls-7,.cls-4,.cls-6{font-size:9px;}.cls-8{stroke:#fff;}.cls-8,.cls-9,.cls-10,.cls-11,.cls-12,.cls-13,.cls-14,.cls-15,.cls-16,.cls-17{fill:none;}.cls-8,.cls-10,.cls-11,.cls-12,.cls-13,.cls-14,.cls-15,.cls-16,.cls-17{stroke-linejoin:round;}.cls-8,.cls-10,.cls-16,.cls-17{stroke-linecap:round;}.cls-8,.cls-13,.cls-14{stroke-width:1.07px;}.cls-18{letter-spacing:-.01em;}.cls-19{clip-path:url(#clippath);}.cls-9,.cls-20,.cls-21,.cls-22,.cls-23,.cls-24,.cls-25,.cls-26{stroke-width:0px;}.cls-27{letter-spacing:-.02em;}.cls-20,.cls-21{fill:#440154;}.cls-20,.cls-23,.cls-24{opacity:.3;}.cls-10,.cls-11{stroke:#21908c;}.cls-10,.cls-16,.cls-17{stroke-width:.71px;}.cls-28{letter-spacing:-.03em;}.cls-11,.cls-12,.cls-15{stroke-width:2.13px;}.cls-3{font-size:10px;}.cls-3,.cls-7,.cls-4,.cls-5{font-family:Helvetica, Helvetica;}.cls-7{fill:#4d4d4d;}.cls-12,.cls-16{stroke:#440154;}.cls-29{letter-spacing:-.02em;}.cls-30{letter-spacing:0em;}.cls-13{stroke:#333;}.cls-22,.cls-23{fill:#fde725;}.cls-31{letter-spacing:-.02em;}.cls-32{letter-spacing:0em;}.cls-14{stroke:#000;}.cls-15,.cls-17{stroke:#fde725;}.cls-33{letter-spacing:-.03em;}.cls-5{font-size:11px;}.cls-24,.cls-25{fill:#21908c;}.cls-34{letter-spacing:.01em;}.cls-35{letter-spacing:-.02em;}.cls-26{fill:#fff;}.cls-6{font-family:Helvetica-Oblique, Helvetica;font-style:oblique;}</style><clipPath id="clippath"><rect class="cls-9" x="29" y="6.02" width="470.05" height="322.61"/></clipPath></defs><rect class="cls-26" x=".54" y=".54" width="504" height="360"/><rect class="cls-26" x=".54" y=".54" width="504" height="360"/><rect class="cls-8" x=".54" y=".54" width="504" height="360"/><g class="cls-19"><rect class="cls-26" x="29" y="6.02" width="470.05" height="322.61"/><path class="cls-25" d="M354.48,192.23c0-1.08.88-1.96,1.95-1.96s1.96.88,1.96,1.96-.88,1.95-1.96,1.95-1.95-.88-1.95-1.95"/><path class="cls-10" d="M354.48,192.23c0-1.08.88-1.96,1.95-1.96s1.96.88,1.96,1.96-.88,1.95-1.96,1.95-1.95-.88-1.95-1.95"/><path class="cls-25" d="M402.62,236.41c0-1.07.87-1.95,1.95-1.95s1.95.88,1.95,1.95-.88,1.96-1.95,1.96-1.95-.88-1.95-1.96"/><path class="cls-10" d="M402.62,236.41c0-1.07.87-1.95,1.95-1.95s1.95.88,1.95,1.95-.88,1.96-1.95,1.96-1.95-.88-1.95-1.96"/><path class="cls-25" d="M447.21,270.8c0-1.08.88-1.96,1.95-1.96s1.96.88,1.96,1.96-.88,1.95-1.96,1.95-1.95-.88-1.95-1.95"/><path class="cls-10" d="M447.21,270.8c0-1.08.88-1.96,1.95-1.96s1.96.88,1.96,1.96-.88,1.95-1.96,1.95-1.95-.88-1.95-1.95"/><path class="cls-25" d="M475.74,242.85c0-1.08.88-1.96,1.95-1.96s1.96.88,1.96,1.96-.88,1.95-1.96,1.95-1.95-.88-1.95-1.95"/><path class="cls-10" d="M475.74,242.85c0-1.08.88-1.96,1.95-1.96s1.96.88,1.96,1.96-.88,1.95-1.96,1.95-1.95-.88-1.95-1.95"/><path class="cls-21" d="M48.42,45.9c0-1.08.88-1.96,1.96-1.96s1.95.88,1.95,1.96-.88,1.95-1.95,1.95-1.96-.88-1.96-1.95"/><path class="cls-16" d="M48.42,45.9c0-1.08.88-1.96,1.96-1.96s1.95.88,1.95,1.96-.88,1.95-1.95,1.95-1.96-.88-1.96-1.95"/><path class="cls-21" d="M49.37,89.42c0-1.07.88-1.95,1.95-1.95s1.96.88,1.96,1.95-.88,1.96-1.96,1.96-1.95-.88-1.95-1.96"/><path class="cls-16" d="M49.37,89.42c0-1.07.88-1.95,1.95-1.95s1.96.88,1.96,1.95-.88,1.96-1.96,1.96-1.95-.88-1.95-1.96"/><path class="cls-21" d="M59.92,89.42c0-1.07.88-1.95,1.95-1.95s1.96.88,1.96,1.95-.88,1.96-1.96,1.96-1.95-.88-1.95-1.96"/><path class="cls-16" d="M59.92,89.42c0-1.07.88-1.95,1.95-1.95s1.96.88,1.96,1.95-.88,1.96-1.96,1.96-1.95-.88-1.95-1.96"/><path class="cls-21" d="M79.16,46.52c0-1.07.88-1.95,1.95-1.95s1.96.88,1.96,1.95-.88,1.96-1.96,1.96-1.95-.88-1.95-1.96"/><path class="cls-16" d="M79.16,46.52c0-1.07.88-1.95,1.95-1.95s1.96.88,1.96,1.95-.88,1.96-1.96,1.96-1.95-.88-1.95-1.96"/><path class="cls-21" d="M79.91,39.77c0-1.07.88-1.95,1.96-1.95s1.95.88,1.95,1.95-.88,1.96-1.95,1.96-1.96-.88-1.96-1.96"/><path class="cls-16" d="M79.91,39.77c0-1.07.88-1.95,1.96-1.95s1.95.88,1.95,1.95-.88,1.96-1.95,1.96-1.96-.88-1.96-1.96"/><path class="cls-21" d="M104.8,45.9c0-1.08.88-1.96,1.96-1.96s1.95.88,1.95,1.96-.88,1.95-1.95,1.95-1.96-.88-1.96-1.95"/><path class="cls-16" d="M104.8,45.9c0-1.08.88-1.96,1.96-1.96s1.95.88,1.95,1.96-.88,1.95-1.95,1.95-1.96-.88-1.96-1.95"/><path class="cls-21" d="M102.54,83.9c0-1.08.88-1.96,1.96-1.96s1.95.88,1.95,1.96-.88,1.95-1.95,1.95-1.96-.88-1.96-1.95"/><path class="cls-16" d="M102.54,83.9c0-1.08.88-1.96,1.96-1.96s1.95.88,1.95,1.96-.88,1.95-1.95,1.95-1.96-.88-1.96-1.95"/><path class="cls-21" d="M99.15,126.81c0-1.08.88-1.96,1.95-1.96s1.96.88,1.96,1.96-.88,1.95-1.96,1.95-1.95-.88-1.95-1.95"/><path class="cls-16" d="M99.15,126.81c0-1.08.88-1.96,1.95-1.96s1.96.88,1.96,1.96-.88,1.95-1.96,1.95-1.95-.88-1.95-1.95"/><path class="cls-21" d="M97.26,133.54c0-1.08.88-1.96,1.96-1.96s1.95.88,1.95,1.96-.88,1.95-1.95,1.95-1.96-.88-1.96-1.95"/><path class="cls-16" d="M97.26,133.54c0-1.08.88-1.96,1.96-1.96s1.95.88,1.95,1.96-.88,1.95-1.95,1.95-1.96-.88-1.96-1.95"/><path class="cls-21" d="M122.15,132.93c0-1.08.88-1.96,1.96-1.96s1.95.88,1.95,1.96-.88,1.95-1.95,1.95-1.96-.88-1.96-1.95"/><path class="cls-16" d="M122.15,132.93c0-1.08.88-1.96,1.96-1.96s1.95.88,1.95,1.96-.88,1.95-1.95,1.95-1.96-.88-1.96-1.95"/><path class="cls-21" d="M122.52,71.04c0-1.08.88-1.96,1.95-1.96s1.96.88,1.96,1.96-.88,1.95-1.96,1.95-1.95-.88-1.95-1.95"/><path class="cls-16" d="M122.52,71.04c0-1.08.88-1.96,1.95-1.96s1.96.88,1.96,1.96-.88,1.95-1.96,1.95-1.95-.88-1.95-1.95"/><path class="cls-21" d="M121.02,58.17c0-1.08.88-1.96,1.96-1.96s1.95.88,1.95,1.96-.88,1.95-1.95,1.95-1.96-.88-1.96-1.95"/><path class="cls-16" d="M121.02,58.17c0-1.08.88-1.96,1.96-1.96s1.95.88,1.95,1.96-.88,1.95-1.95,1.95-1.96-.88-1.96-1.95"/><path class="cls-21" d="M126.67,58.77c0-1.08.88-1.95,1.95-1.95s1.96.87,1.96,1.95-.88,1.95-1.96,1.95-1.95-.87-1.95-1.95"/><path class="cls-16" d="M126.67,58.77c0-1.08.88-1.95,1.95-1.95s1.96.87,1.96,1.95-.88,1.95-1.96,1.95-1.95-.87-1.95-1.95"/><path class="cls-21" d="M136.48,64.9c0-1.08.88-1.96,1.96-1.96s1.95.88,1.95,1.96-.88,1.95-1.95,1.95-1.96-.88-1.96-1.95"/><path class="cls-16" d="M136.48,64.9c0-1.08.88-1.96,1.96-1.96s1.95.88,1.95,1.96-.88,1.95-1.95,1.95-1.96-.88-1.96-1.95"/><path class="cls-21" d="M135.73,34.27c0-1.08.88-1.96,1.95-1.96s1.96.88,1.96,1.96-.88,1.95-1.96,1.95-1.95-.88-1.95-1.95"/><path class="cls-16" d="M135.73,34.27c0-1.08.88-1.96,1.95-1.96s1.96.88,1.96,1.96-.88,1.95-1.96,1.95-1.95-.88-1.95-1.95"/><path class="cls-21" d="M144.78,58.77c0-1.08.88-1.95,1.96-1.95s1.95.87,1.95,1.95-.88,1.95-1.95,1.95-1.96-.87-1.96-1.95"/><path class="cls-16" d="M144.78,58.77c0-1.08.88-1.95,1.96-1.95s1.95.87,1.95,1.95-.88,1.95-1.95,1.95-1.96-.87-1.96-1.95"/><path class="cls-21" d="M143.26,83.9c0-1.08.88-1.96,1.96-1.96s1.95.88,1.95,1.96-.88,1.95-1.95,1.95-1.96-.88-1.96-1.95"/><path class="cls-16" d="M143.26,83.9c0-1.08.88-1.96,1.96-1.96s1.95.88,1.95,1.96-.88,1.95-1.95,1.95-1.96-.88-1.96-1.95"/><path class="cls-21" d="M139.5,121.29c0-1.07.88-1.95,1.96-1.95s1.95.88,1.95,1.95-.88,1.96-1.95,1.96-1.96-.88-1.96-1.96"/><path class="cls-16" d="M139.5,121.29c0-1.07.88-1.95,1.96-1.95s1.95.88,1.95,1.95-.88,1.96-1.95,1.96-1.96-.88-1.96-1.96"/><path class="cls-21" d="M143.26,115.15c0-1.07.88-1.95,1.96-1.95s1.95.88,1.95,1.95-.88,1.96-1.95,1.96-1.96-.88-1.96-1.96"/><path class="cls-16" d="M143.26,115.15c0-1.07.88-1.95,1.96-1.95s1.95.88,1.95,1.95-.88,1.96-1.95,1.96-1.96-.88-1.96-1.96"/><path class="cls-21" d="M150.06,133.54c0-1.08.88-1.96,1.96-1.96s1.95.88,1.95,1.96-.88,1.95-1.95,1.95-1.96-.88-1.96-1.95"/><path class="cls-16" d="M150.06,133.54c0-1.08.88-1.96,1.96-1.96s1.95.88,1.95,1.96-.88,1.95-1.95,1.95-1.96-.88-1.96-1.95"/><path class="cls-21" d="M157.23,83.9c0-1.08.88-1.96,1.95-1.96s1.96.88,1.96,1.96-.88,1.95-1.96,1.95-1.95-.88-1.95-1.95"/><path class="cls-16" d="M157.23,83.9c0-1.08.88-1.96,1.95-1.96s1.96.88,1.96,1.96-.88,1.95-1.96,1.95-1.95-.88-1.95-1.95"/><path class="cls-21" d="M156.46,92.49c0-1.08.88-1.96,1.96-1.96s1.95.88,1.95,1.96-.88,1.95-1.95,1.95-1.96-.88-1.96-1.95"/><path class="cls-16" d="M156.46,92.49c0-1.08.88-1.96,1.96-1.96s1.95.88,1.95,1.96-.88,1.95-1.95,1.95-1.96-.88-1.96-1.95"/><path class="cls-21" d="M158.73,109.65c0-1.08.88-1.96,1.96-1.96s1.95.88,1.95,1.96-.88,1.95-1.95,1.95-1.96-.88-1.96-1.95"/><path class="cls-16" d="M158.73,109.65c0-1.08.88-1.96,1.96-1.96s1.95.88,1.95,1.96-.88,1.95-1.95,1.95-1.96-.88-1.96-1.95"/><path class="cls-21" d="M159.11,157.45c0-1.07.88-1.95,1.96-1.95s1.95.88,1.95,1.95-.88,1.96-1.95,1.96-1.96-.88-1.96-1.96"/><path class="cls-16" d="M159.11,157.45c0-1.07.88-1.95,1.96-1.95s1.95.88,1.95,1.95-.88,1.96-1.95,1.96-1.96-.88-1.96-1.96"/><path class="cls-21" d="M168.54,114.54c0-1.07.88-1.95,1.95-1.95s1.96.88,1.96,1.95-.88,1.96-1.96,1.96-1.95-.88-1.95-1.96"/><path class="cls-16" d="M168.54,114.54c0-1.07.88-1.95,1.95-1.95s1.96.88,1.96,1.95-.88,1.96-1.96,1.96-1.95-.88-1.95-1.96"/><path class="cls-21" d="M169.29,145.81c0-1.08.88-1.96,1.96-1.96s1.95.88,1.95,1.96-.88,1.95-1.95,1.95-1.96-.88-1.96-1.95"/><path class="cls-16" d="M169.29,145.81c0-1.08.88-1.96,1.96-1.96s1.95.88,1.95,1.96-.88,1.95-1.95,1.95-1.96-.88-1.96-1.95"/><path class="cls-21" d="M170.42,158.06c0-1.07.88-1.95,1.95-1.95s1.96.88,1.96,1.95-.88,1.96-1.96,1.96-1.95-.88-1.95-1.96"/><path class="cls-16" d="M170.42,158.06c0-1.07.88-1.95,1.95-1.95s1.96.88,1.96,1.95-.88,1.96-1.96,1.96-1.95-.88-1.95-1.96"/><path class="cls-21" d="M174.95,121.29c0-1.07.88-1.95,1.96-1.95s1.95.88,1.95,1.95-.88,1.96-1.95,1.96-1.96-.88-1.96-1.96"/><path class="cls-16" d="M174.95,121.29c0-1.07.88-1.95,1.96-1.95s1.95.88,1.95,1.95-.88,1.96-1.95,1.96-1.96-.88-1.96-1.96"/><path class="cls-21" d="M187.01,121.29c0-1.07.88-1.95,1.95-1.95s1.96.88,1.96,1.95-.88,1.96-1.96,1.96-1.95-.88-1.95-1.96"/><path class="cls-16" d="M187.01,121.29c0-1.07.88-1.95,1.95-1.95s1.96.88,1.96,1.95-.88,1.96-1.96,1.96-1.95-.88-1.95-1.96"/><path class="cls-21" d="M187.4,134.78c0-1.08.88-1.96,1.95-1.96s1.96.88,1.96,1.96-.88,1.95-1.96,1.95-1.95-.88-1.95-1.95"/><path class="cls-16" d="M187.4,134.78c0-1.08.88-1.96,1.95-1.96s1.96.88,1.96,1.96-.88,1.95-1.96,1.95-1.95-.88-1.95-1.95"/><path class="cls-21" d="M193.04,140.29c0-1.07.88-1.95,1.96-1.95s1.95.88,1.95,1.95-.88,1.96-1.95,1.96-1.96-.88-1.96-1.96"/><path class="cls-16" d="M193.04,140.29c0-1.07.88-1.95,1.96-1.95s1.95.88,1.95,1.95-.88,1.96-1.95,1.96-1.96-.88-1.96-1.96"/><path class="cls-21" d="M198.7,108.42c0-1.07.88-1.95,1.96-1.95s1.95.88,1.95,1.95-.88,1.96-1.95,1.96-1.96-.88-1.96-1.96"/><path class="cls-16" d="M198.7,108.42c0-1.07.88-1.95,1.96-1.95s1.95.88,1.95,1.95-.88,1.96-1.95,1.96-1.96-.88-1.96-1.96"/><path class="cls-21" d="M191.17,58.77c0-1.08.88-1.95,1.95-1.95s1.96.87,1.96,1.95-.88,1.95-1.96,1.95-1.95-.87-1.95-1.95"/><path class="cls-16" d="M191.17,58.77c0-1.08.88-1.95,1.95-1.95s1.96.87,1.96,1.95-.88,1.95-1.96,1.95-1.95-.87-1.95-1.95"/><path class="cls-21" d="M202.09,151.31c0-1.07.88-1.95,1.96-1.95s1.95.88,1.95,1.95-.88,1.96-1.95,1.96-1.96-.88-1.96-1.96"/><path class="cls-16" d="M202.09,151.31c0-1.07.88-1.95,1.96-1.95s1.95.88,1.95,1.95-.88,1.96-1.95,1.96-1.96-.88-1.96-1.96"/><path class="cls-21" d="M210.4,151.31c0-1.07.88-1.95,1.96-1.95s1.95.88,1.95,1.95-.88,1.96-1.95,1.96-1.96-.88-1.96-1.96"/><path class="cls-16" d="M210.4,151.31c0-1.07.88-1.95,1.96-1.95s1.95.88,1.95,1.95-.88,1.96-1.95,1.96-1.96-.88-1.96-1.96"/><path class="cls-21" d="M199.09,170.92c0-1.07.88-1.95,1.95-1.95s1.96.88,1.96,1.95-.88,1.96-1.96,1.96-1.95-.88-1.95-1.96"/><path class="cls-16" d="M199.09,170.92c0-1.07.88-1.95,1.95-1.95s1.96.88,1.96,1.95-.88,1.96-1.96,1.96-1.95-.88-1.95-1.96"/><path class="cls-21" d="M205.12,194.21c0-1.07.88-1.95,1.96-1.95s1.95.88,1.95,1.95-.88,1.96-1.95,1.96-1.96-.88-1.96-1.96"/><path class="cls-16" d="M205.12,194.21c0-1.07.88-1.95,1.96-1.95s1.95.88,1.95,1.95-.88,1.96-1.95,1.96-1.96-.88-1.96-1.96"/><path class="cls-21" d="M221.71,188.7c0-1.08.88-1.96,1.95-1.96s1.96.88,1.96,1.96-.88,1.95-1.96,1.95-1.95-.88-1.95-1.95"/><path class="cls-16" d="M221.71,188.7c0-1.08.88-1.96,1.95-1.96s1.96.88,1.96,1.96-.88,1.95-1.96,1.95-1.95-.88-1.95-1.95"/><path class="cls-21" d="M227.75,194.21c0-1.07.88-1.95,1.95-1.95s1.96.88,1.96,1.95-.88,1.96-1.96,1.96-1.95-.88-1.95-1.96"/><path class="cls-16" d="M227.75,194.21c0-1.07.88-1.95,1.95-1.95s1.96.88,1.96,1.95-.88,1.96-1.96,1.96-1.95-.88-1.95-1.96"/><path class="cls-21" d="M231.51,212.61c0-1.08.88-1.96,1.96-1.96s1.95.88,1.95,1.96-.88,1.95-1.95,1.95-1.96-.88-1.96-1.95"/><path class="cls-16" d="M231.51,212.61c0-1.08.88-1.96,1.96-1.96s1.95.88,1.95,1.96-.88,1.95-1.95,1.95-1.96-.88-1.96-1.95"/><path class="cls-21" d="M260.93,212.61c0-1.08.88-1.96,1.95-1.96s1.96.88,1.96,1.96-.88,1.95-1.96,1.95-1.95-.88-1.95-1.95"/><path class="cls-16" d="M260.93,212.61c0-1.08.88-1.96,1.95-1.96s1.96.88,1.96,1.96-.88,1.95-1.96,1.95-1.95-.88-1.95-1.95"/><path class="cls-21" d="M269.23,206.48c0-1.07.88-1.95,1.96-1.95s1.95.88,1.95,1.95-.88,1.96-1.95,1.96-1.96-.88-1.96-1.96"/><path class="cls-16" d="M269.23,206.48c0-1.07.88-1.95,1.96-1.95s1.95.88,1.95,1.95-.88,1.96-1.95,1.96-1.96-.88-1.96-1.96"/><path class="cls-21" d="M274.89,206.48c0-1.07.88-1.95,1.96-1.95s1.95.88,1.95,1.95-.88,1.96-1.95,1.96-1.96-.88-1.96-1.96"/><path class="cls-16" d="M274.89,206.48c0-1.07.88-1.95,1.96-1.95s1.95.88,1.95,1.95-.88,1.96-1.95,1.96-1.96-.88-1.96-1.96"/><path class="cls-22" d="M235,105.73c0-1.08.88-1.96,1.95-1.96s1.96.88,1.96,1.96-.88,1.95-1.96,1.95-1.95-.88-1.95-1.95"/><path class="cls-17" d="M235,105.73c0-1.08.88-1.96,1.95-1.96s1.96.88,1.96,1.96-.88,1.95-1.96,1.95-1.95-.88-1.95-1.95"/><path class="cls-22" d="M270.65,154.01c0-1.08.88-1.96,1.96-1.96s1.95.88,1.95,1.96-.88,1.95-1.95,1.95-1.96-.88-1.96-1.95"/><path class="cls-17" d="M270.65,154.01c0-1.08.88-1.96,1.96-1.96s1.95.88,1.95,1.96-.88,1.95-1.95,1.95-1.96-.88-1.96-1.95"/><path class="cls-22" d="M306.33,161.62c0-1.08.88-1.96,1.95-1.96s1.96.88,1.96,1.96-.88,1.95-1.96,1.95-1.95-.88-1.95-1.95"/><path class="cls-17" d="M306.33,161.62c0-1.08.88-1.96,1.95-1.96s1.96.88,1.96,1.96-.88,1.95-1.96,1.95-1.95-.88-1.95-1.95"/><path class="cls-22" d="M341.99,178.9c0-1.07.88-1.95,1.96-1.95s1.95.88,1.95,1.95-.88,1.96-1.95,1.96-1.96-.88-1.96-1.96"/><path class="cls-17" d="M341.99,178.9c0-1.07.88-1.95,1.96-1.95s1.95.88,1.95,1.95-.88,1.96-1.95,1.96-1.96-.88-1.96-1.96"/><path class="cls-22" d="M395.49,198.2c0-1.08.88-1.96,1.96-1.96s1.95.88,1.95,1.96-.88,1.95-1.95,1.95-1.96-.88-1.96-1.95"/><path class="cls-17" d="M395.49,198.2c0-1.08.88-1.96,1.96-1.96s1.95.88,1.95,1.96-.88,1.95-1.95,1.95-1.96-.88-1.96-1.95"/><path class="cls-22" d="M448.99,192.01c0-1.08.88-1.96,1.96-1.96s1.95.88,1.95,1.96-.88,1.95-1.95,1.95-1.96-.88-1.96-1.95"/><path class="cls-17" d="M448.99,192.01c0-1.08.88-1.96,1.96-1.96s1.95.88,1.95,1.96-.88,1.95-1.95,1.95-1.96-.88-1.96-1.95"/><polygon class="cls-20" points="50.38 20.68 53.24 23.12 56.1 25.58 58.97 28.02 61.85 30.46 64.7 32.9 67.58 35.34 70.45 37.77 73.3 40.21 76.17 42.64 79.05 45.06 81.91 47.49 84.77 49.89 87.65 52.3 90.51 54.71 93.37 57.11 96.24 59.51 99.1 61.89 101.98 64.27 104.84 66.65 107.7 69.02 110.58 71.37 113.45 73.73 116.3 76.05 119.17 78.39 122.05 80.71 124.91 83.01 127.77 85.3 130.65 87.56 133.51 89.83 136.37 92.06 139.25 94.29 142.11 96.49 144.98 98.68 147.84 100.84 150.7 102.99 153.57 105.12 156.45 107.21 159.31 109.29 162.17 111.34 165.04 113.39 167.9 115.4 170.78 117.39 173.65 119.36 176.51 121.31 179.37 123.23 182.25 125.15 185.11 127.04 187.98 128.9 190.84 130.76 193.7 132.62 196.57 134.45 199.45 136.26 202.31 138.06 205.17 139.87 208.04 141.65 210.9 143.42 213.78 145.2 216.65 146.95 219.51 148.7 222.37 150.45 225.25 152.17 228.11 153.9 230.98 155.64 233.84 157.36 236.7 159.07 239.57 160.79 242.45 162.48 245.31 164.2 248.17 165.9 251.04 167.59 253.9 169.28 256.77 170.96 259.64 172.65 262.51 174.34 265.37 176.03 268.24 177.7 271.11 179.39 273.98 181.06 276.84 182.73 276.84 221.9 273.98 219.43 271.11 216.98 268.24 214.54 265.37 212.09 262.51 209.64 259.64 207.2 256.77 204.75 253.9 202.31 251.04 199.87 248.17 197.43 245.31 195.01 242.45 192.59 239.57 190.15 236.7 187.73 233.84 185.32 230.98 182.92 228.11 180.51 225.25 178.12 222.37 175.71 219.51 173.34 216.65 170.95 213.78 168.59 210.9 166.21 208.04 163.87 205.17 161.51 202.31 159.18 199.45 156.86 196.57 154.54 193.7 152.25 190.84 149.96 187.98 147.7 185.11 145.43 182.25 143.2 179.37 140.98 176.51 138.79 173.65 136.59 170.78 134.43 167.9 132.29 165.04 130.18 162.17 128.09 159.31 126.01 156.45 123.96 153.57 121.93 150.7 119.92 147.84 117.93 144.98 115.98 142.11 114.04 139.25 112.11 136.37 110.2 133.51 108.31 130.65 106.45 127.77 104.59 124.91 102.74 122.05 100.92 119.17 99.11 116.3 97.3 113.45 95.51 110.58 93.73 107.7 91.95 104.84 90.18 101.98 88.43 99.1 86.68 96.24 84.93 93.37 83.21 90.51 81.48 87.65 79.74 84.77 78.04 81.91 76.31 79.05 74.61 76.17 72.9 73.3 71.2 70.45 69.51 67.58 67.8 64.7 66.11 61.85 64.43 58.97 62.74 56.1 61.05 53.24 59.37 50.38 57.7 50.38 20.68"/><polyline class="cls-12" points="50.38 39.18 53.24 41.26 56.1 43.31 58.97 45.37 61.85 47.45 64.7 49.51 67.58 51.58 70.45 53.64 73.3 55.71 76.17 57.77 79.05 59.83 81.91 61.89 84.77 63.96 87.65 66.02 90.51 68.09 93.37 70.15 96.24 72.23 99.1 74.29 101.98 76.36 104.84 78.42 107.7 80.49 110.58 82.55 113.45 84.61 116.3 86.68 119.17 88.74 122.05 90.8 124.91 92.87 127.77 94.93 130.65 97.01 133.51 99.06 136.37 101.14 139.25 103.2 142.11 105.26 144.98 107.32 147.84 109.4 150.7 111.45 153.57 113.53 156.45 115.59 159.31 117.65 162.17 119.71 165.04 121.79 167.9 123.84 170.78 125.92 173.65 127.98 176.51 130.04 179.37 132.11 182.25 134.17 185.11 136.23 187.98 138.31 190.84 140.37 193.7 142.43 196.57 144.5 199.45 146.56 202.31 148.62 205.17 150.7 208.04 152.76 210.9 154.82 213.78 156.89 216.65 158.95 219.51 161.01 222.37 163.07 225.25 165.15 228.11 167.2 230.98 169.28 233.84 171.34 236.7 173.4 239.57 175.46 242.45 177.54 245.31 179.59 248.17 181.67 251.04 183.73 253.9 185.79 256.77 187.86 259.64 189.92 262.51 191.98 265.37 194.06 268.24 196.12 271.11 198.18 273.98 200.25 276.84 202.31"/><polygon class="cls-24" points="356.43 146.82 357.96 148.46 359.49 150.11 361.04 151.73 362.56 153.34 364.11 154.95 365.64 156.56 367.18 158.15 368.71 159.73 370.24 161.31 371.77 162.87 373.31 164.42 374.84 165.96 376.39 167.48 377.92 169.01 379.46 170.51 380.99 172 382.52 173.46 384.05 174.92 385.59 176.36 387.12 177.79 388.67 179.18 390.2 180.57 391.74 181.93 393.27 183.28 394.8 184.61 396.33 185.9 397.87 187.17 399.4 188.42 400.95 189.65 402.48 190.84 404.02 192.01 405.55 193.15 407.08 194.26 408.61 195.34 410.15 196.39 411.68 197.4 413.23 198.39 414.76 199.32 416.3 200.23 417.83 201.12 419.36 201.95 420.89 202.76 422.43 203.53 423.96 204.26 425.51 204.95 427.04 205.62 428.58 206.25 430.11 206.84 431.64 207.4 433.18 207.92 434.71 208.4 436.24 208.87 437.79 209.29 439.31 209.68 440.86 210.04 442.39 210.39 443.93 210.7 445.46 210.98 446.99 211.23 448.52 211.48 450.06 211.68 451.59 211.87 453.12 212.04 454.67 212.18 456.2 212.31 457.74 212.42 459.27 212.51 460.8 212.59 462.33 212.65 463.87 212.68 465.4 212.71 466.95 212.73 468.48 212.73 470.02 212.71 471.55 212.68 473.08 212.65 474.61 212.61 476.15 212.56 477.68 212.48 477.68 313.97 476.15 312.38 474.61 310.79 473.08 309.22 471.55 307.67 470.02 306.12 468.48 304.58 466.95 303.06 465.4 301.56 463.87 300.06 462.33 298.58 460.8 297.1 459.27 295.66 457.74 294.23 456.2 292.81 454.67 291.41 453.12 290.04 451.59 288.69 450.06 287.34 448.52 286.04 446.99 284.74 445.46 283.48 443.93 282.23 442.39 281.02 440.86 279.84 439.31 278.69 437.79 277.55 436.24 276.45 434.71 275.38 433.18 274.35 431.64 273.35 430.11 272.38 428.58 271.45 427.04 270.55 425.51 269.7 423.96 268.87 422.43 268.08 420.89 267.33 419.36 266.6 417.83 265.92 416.3 265.27 414.76 264.66 413.23 264.09 411.68 263.55 410.15 263.04 408.61 262.55 407.08 262.12 405.55 261.7 404.02 261.31 402.48 260.95 400.95 260.63 399.4 260.34 397.87 260.05 396.33 259.8 394.8 259.59 393.27 259.38 391.74 259.2 390.2 259.05 388.67 258.91 387.12 258.79 385.59 258.69 384.05 258.6 382.52 258.54 380.99 258.48 379.46 258.45 377.92 258.42 376.39 258.41 374.84 258.41 373.31 258.44 371.77 258.47 370.24 258.51 368.71 258.55 367.18 258.62 365.64 258.69 364.11 258.77 362.56 258.84 361.04 258.95 359.49 259.05 357.96 259.16 356.43 259.27 356.43 146.82"/><polyline class="cls-11" points="356.43 203.06 357.96 203.81 359.49 204.57 361.04 205.34 362.56 206.09 364.11 206.86 365.64 207.62 367.18 208.39 368.71 209.15 370.24 209.9 371.77 210.67 373.31 211.42 374.84 212.2 376.39 212.95 377.92 213.71 379.46 214.48 380.99 215.23 382.52 216 384.05 216.76 385.59 217.53 387.12 218.29 388.67 219.04 390.2 219.81 391.74 220.56 393.27 221.34 394.8 222.09 396.33 222.86 397.87 223.62 399.4 224.37 400.95 225.14 402.48 225.9 404.02 226.67 405.55 227.42 407.08 228.18 408.61 228.95 410.15 229.7 411.68 230.48 413.23 231.23 414.76 232 416.3 232.76 417.83 233.52 419.36 234.29 420.89 235.05 422.43 235.8 423.96 236.56 425.51 237.33 427.04 238.09 428.58 238.85 430.11 239.62 431.64 240.37 433.18 241.13 434.71 241.9 436.24 242.66 437.79 243.42 439.31 244.19 440.86 244.95 442.39 245.7 443.93 246.47 445.46 247.23 446.99 247.99 448.52 248.76 450.06 249.52 451.59 250.27 453.12 251.04 454.67 251.8 456.2 252.56 457.74 253.33 459.27 254.09 460.8 254.84 462.33 255.6 463.87 256.37 465.4 257.13 466.95 257.9 468.48 258.66 470.02 259.41 471.55 260.17 473.08 260.94 474.61 261.7 476.15 262.47 477.68 263.23"/><polygon class="cls-23" points="236.95 103.99 239.65 105.43 242.37 106.87 245.07 108.31 247.79 109.75 250.48 111.17 253.2 112.61 255.9 114.03 258.61 115.43 261.33 116.84 264.04 118.23 266.74 119.62 269.46 121.01 272.15 122.39 274.86 123.76 277.58 125.12 280.29 126.46 282.99 127.79 285.71 129.12 288.42 130.45 291.12 131.75 293.83 133.04 296.54 134.31 299.24 135.57 301.96 136.82 304.67 138.06 307.37 139.29 310.08 140.48 312.8 141.67 315.51 142.84 318.21 143.98 320.92 145.12 323.62 146.23 326.33 147.32 329.05 148.4 331.76 149.45 334.46 150.5 337.18 151.51 339.87 152.5 342.58 153.48 345.3 154.42 348.01 155.37 350.71 156.29 353.43 157.17 356.14 158.06 358.84 158.92 361.55 159.76 364.26 160.59 366.96 161.4 369.68 162.2 372.39 162.98 375.09 163.76 377.8 164.51 380.52 165.25 383.23 165.98 385.93 166.7 388.64 167.4 391.34 168.11 394.05 168.79 396.77 169.46 399.48 170.14 402.18 170.79 404.89 171.45 407.59 172.09 410.3 172.73 413.02 173.36 415.73 173.98 418.43 174.61 421.14 175.21 423.86 175.82 426.56 176.42 429.27 177.03 431.98 177.62 434.68 178.2 437.39 178.79 440.11 179.37 442.81 179.95 445.52 180.53 448.24 181.09 450.95 181.67 450.95 235.8 448.24 234.34 445.52 232.87 442.81 231.4 440.11 229.93 437.39 228.48 434.68 227.01 431.98 225.56 429.27 224.12 426.56 222.67 423.86 221.25 421.14 219.81 418.43 218.39 415.73 216.95 413.02 215.54 410.3 214.14 407.59 212.73 404.89 211.34 402.18 209.95 399.48 208.56 396.77 207.2 394.05 205.84 391.34 204.48 388.64 203.14 385.93 201.81 383.23 200.48 380.52 199.17 377.8 197.87 375.09 196.59 372.39 195.31 369.68 194.06 366.96 192.81 364.26 191.59 361.55 190.37 358.84 189.17 356.14 188 353.43 186.84 350.71 185.7 348.01 184.56 345.3 183.46 342.58 182.37 339.87 181.31 337.18 180.26 334.46 179.23 331.76 178.23 329.05 177.25 326.33 176.28 323.62 175.34 320.92 174.4 318.21 173.5 315.51 172.61 312.8 171.73 310.08 170.87 307.37 170.04 304.67 169.23 301.96 168.42 299.24 167.62 296.54 166.84 293.83 166.09 291.12 165.34 288.42 164.59 285.71 163.87 282.99 163.17 280.29 162.45 277.58 161.76 274.86 161.09 272.15 160.4 269.46 159.75 266.74 159.09 264.04 158.43 261.33 157.79 258.61 157.17 255.9 156.54 253.2 155.92 250.48 155.29 247.79 154.68 245.07 154.07 242.37 153.48 239.65 152.89 236.95 152.29 236.95 103.99"/><polyline class="cls-15" points="236.95 128.14 239.65 129.15 242.37 130.17 245.07 131.2 247.79 132.21 250.48 133.23 253.2 134.26 255.9 135.28 258.61 136.29 261.33 137.31 264.04 138.34 266.74 139.36 269.46 140.37 272.15 141.4 274.86 142.42 277.58 143.43 280.29 144.45 282.99 145.48 285.71 146.5 288.42 147.53 291.12 148.54 293.83 149.56 296.54 150.59 299.24 151.61 301.96 152.62 304.67 153.65 307.37 154.67 310.08 155.68 312.8 156.7 315.51 157.73 318.21 158.75 320.92 159.76 323.62 160.79 326.33 161.81 329.05 162.82 331.76 163.84 334.46 164.87 337.18 165.89 339.87 166.9 342.58 167.92 345.3 168.95 348.01 169.96 350.71 170.98 353.43 172.01 356.14 173.03 358.84 174.04 361.55 175.06 364.26 176.09 366.96 177.11 369.68 178.12 372.39 179.15 375.09 180.17 377.8 181.18 380.52 182.2 383.23 183.23 385.93 184.25 388.64 185.26 391.34 186.29 394.05 187.31 396.77 188.32 399.48 189.36 402.18 190.37 404.89 191.4 407.59 192.42 410.3 193.43 413.02 194.45 415.73 195.48 418.43 196.5 421.14 197.51 423.86 198.54 426.56 199.56 429.27 200.57 431.98 201.59 434.68 202.62 437.39 203.64 440.11 204.65 442.81 205.67 445.52 206.7 448.24 207.71 450.95 208.73"/></g><line class="cls-14" x1="29" y1="328.63" x2="29" y2="6.02"/><text class="cls-7" transform="translate(19.08 307.77)"><tspan x="0" y="0">0</tspan></text><text class="cls-7" transform="translate(19.08 246.48)"><tspan x="0" y="0">1</tspan></text><text class="cls-7" transform="translate(19.08 185.2)"><tspan x="0" y="0">2</tspan></text><text class="cls-7" transform="translate(19.08 123.91)"><tspan x="0" y="0">3</tspan></text><text class="cls-7" transform="translate(19.08 62.62)"><tspan x="0" y="0">4</tspan></text><line class="cls-13" x1="26.26" y1="304.54" x2="29" y2="304.54"/><line class="cls-13" x1="26.26" y1="243.24" x2="29" y2="243.24"/><line class="cls-13" x1="26.26" y1="181.96" x2="29" y2="181.96"/><line class="cls-13" x1="26.26" y1="120.67" x2="29" y2="120.67"/><line class="cls-13" x1="26.26" y1="59.39" x2="29" y2="59.39"/><line class="cls-14" x1="29" y1="328.63" x2="499.05" y2="328.63"/><line class="cls-13" x1="183.45" y1="331.36" x2="183.45" y2="328.63"/><line class="cls-13" x1="361.77" y1="331.36" x2="361.77" y2="328.63"/><text class="cls-7" transform="translate(173.43 340.02)"><tspan x="0" y="0">1000</tspan></text><text class="cls-7" transform="translate(351.77 340.02)"><tspan x="0" y="0">2000</tspan></text><text class="cls-5" transform="translate(231.93 352.63)"><tspan x="0" y="0">El</tspan><tspan class="cls-28" x="9.78" y="0">e</tspan><tspan class="cls-29" x="15.57" y="0">v</tspan><tspan class="cls-30" x="20.8" y="0">ation (m)</tspan></text><text class="cls-5" transform="translate(13.92 199.32) rotate(-90)"><tspan x="0" y="0">Gr</tspan><tspan class="cls-35" x="12.22" y="0">o</tspan><tspan x="18.17" y="0">wth (mm)</tspan></text><rect class="cls-26" x="318.71" y="25.94" width="172.67" height="56.92"/><text class="cls-3" transform="translate(324.19 39.7)"><tspan x="0" y="0">Species (re</tspan><tspan class="cls-33" x="50.58" y="0">f</tspan><tspan x="53.06" y="0">erence)</tspan></text><path class="cls-21" d="M326.49,51.06c0-1.07.88-1.95,1.96-1.95s1.95.88,1.95,1.95-.88,1.96-1.95,1.96-1.96-.88-1.96-1.96"/><path class="cls-16" d="M326.49,51.06c0-1.07.88-1.95,1.96-1.95s1.95.88,1.95,1.95-.88,1.96-1.95,1.96-1.96-.88-1.96-1.96"/><rect class="cls-20" x="324.18" y="45.79" width="8.5" height="10.56"/><line class="cls-12" x1="325.04" y1="51.06" x2="331.84" y2="51.06"/><path class="cls-25" d="M326.49,61.59c0-1.07.88-1.95,1.96-1.95s1.95.88,1.95,1.95-.88,1.96-1.95,1.96-1.96-.88-1.96-1.96"/><path class="cls-10" d="M326.49,61.59c0-1.07.88-1.95,1.96-1.95s1.95.88,1.95,1.95-.88,1.96-1.95,1.96-1.96-.88-1.96-1.96"/><rect class="cls-24" x="324.18" y="56.34" width="8.5" height="10.5"/><line class="cls-11" x1="325.04" y1="61.59" x2="331.84" y2="61.59"/><path class="cls-22" d="M326.49,72.11c0-1.07.88-1.95,1.96-1.95s1.95.88,1.95,1.95-.88,1.96-1.95,1.96-1.96-.88-1.96-1.96"/><path class="cls-17" d="M326.49,72.11c0-1.07.88-1.95,1.96-1.95s1.95.88,1.95,1.95-.88,1.96-1.95,1.96-1.96-.88-1.96-1.96"/><rect class="cls-23" x="324.18" y="66.84" width="8.5" height="10.54"/><line class="cls-15" x1="325.04" y1="72.11" x2="331.84" y2="72.11"/><text class="cls-6" transform="translate(337.67 53.37)"><tspan x="0" y="0">Picea m</tspan><tspan class="cls-27" x="32.51" y="0">e</tspan><tspan class="cls-31" x="37.34" y="0">y</tspan><tspan x="41.67" y="0">e</tspan><tspan class="cls-34" x="46.67" y="0">r</tspan><tspan x="49.79" y="0">i</tspan></text><text class="cls-2" transform="translate(389.45 53.37)"><tspan x="0" y="0"> </tspan></text><text class="cls-4" transform="translate(391.7 53.37)"><tspan x="0" y="0">(</tspan><tspan class="cls-1" x="3" y="0">W</tspan><tspan x="11.14" y="0">ang</tspan></text><text class="cls-2" transform="translate(417.86 53.37)"><tspan x="0" y="0"> </tspan></text><text class="cls-6" transform="translate(420.11 53.37)"><tspan x="0" y="0">et al.</tspan></text><text class="cls-2" transform="translate(439.62 53.37)"><tspan x="0" y="0"> </tspan></text><text class="cls-4" transform="translate(441.87 53.37)"><tspan x="0" y="0">2017)</tspan></text><text class="cls-6" transform="translate(337.67 63.93)"><tspan x="0" y="0">Pi</tspan><tspan class="cls-18" x="8" y="0">n</tspan><tspan class="cls-32" x="12.92" y="0">us yunnanensis</tspan></text><text class="cls-2" transform="translate(413.12 63.93)"><tspan x="0" y="0"> </tspan></text><text class="cls-4" transform="translate(415.37 63.93)"><tspan x="0" y="0">(Zhou</tspan></text><text class="cls-2" transform="translate(438.87 63.93)"><tspan x="0" y="0"> </tspan></text><text class="cls-6" transform="translate(441.12 63.93)"><tspan x="0" y="0">et al.</tspan></text><text class="cls-2" transform="translate(460.65 63.93)"><tspan x="0" y="0"> </tspan></text><text class="cls-4" transform="translate(462.9 63.93)"><tspan x="0" y="0">2022)</tspan></text><text class="cls-6" transform="translate(337.67 74.47)"><tspan x="0" y="0">Picea abies</tspan></text><text class="cls-2" transform="translate(384.2 74.47)"><tspan x="0" y="0"> </tspan></text><text class="cls-4" transform="translate(386.45 74.47)"><tspan x="0" y="0">(Oleksyn</tspan></text><text class="cls-2" transform="translate(421.95 74.47)"><tspan x="0" y="0"> </tspan></text><text class="cls-6" transform="translate(424.2 74.47)"><tspan x="0" y="0">et al.</tspan></text><text class="cls-2" transform="translate(443.71 74.47)"><tspan x="0" y="0"> </tspan></text><text class="cls-4" transform="translate(445.96 74.47)"><tspan x="0" y="0">1998)</tspan></text></svg>