<?xml version="1.0" encoding="UTF-8"?><svg id="Layer_1" xmlns="http://www.w3.org/2000/svg" xmlns:xlink="http://www.w3.org/1999/xlink" viewBox="0 0 793.07 280.86"><defs><style>.cls-1,.cls-2,.cls-3,.cls-4{opacity:.6;}.cls-1,.cls-3,.cls-5,.cls-6,.cls-7,.cls-8,.cls-9,.cls-10,.cls-11,.cls-12,.cls-13,.cls-4,.cls-14,.cls-15,.cls-16,.cls-17,.cls-18,.cls-19,.cls-20,.cls-21{stroke-width:0px;}.cls-1,.cls-15,.cls-19{fill:#99000d;}.cls-22,.cls-2,.cls-23,.cls-24,.cls-25,.cls-26,.cls-27,.cls-28,.cls-29{font-family:Helvetica, Helvetica;}.cls-22,.cls-2,.cls-23,.cls-24,.cls-28,.cls-29{fill:#000;}.cls-22,.cls-2,.cls-23,.cls-24,.cls-29{font-size:11px;}.cls-22,.cls-17{opacity:.8;}.cls-30{stroke:#fff;}.cls-30,.cls-5,.cls-31,.cls-32,.cls-33,.cls-34{fill:none;}.cls-30,.cls-31,.cls-32,.cls-33{stroke-linejoin:round;}.cls-30,.cls-31,.cls-33{stroke-width:1.07px;}.cls-30,.cls-32{stroke-linecap:round;}.cls-3,.cls-6,.cls-16,.cls-17{fill:#084594;}.cls-23,.cls-15{opacity:.4;}.cls-24,.cls-11,.cls-13,.cls-16,.cls-19{opacity:.2;}.cls-35{letter-spacing:-.01em;}.cls-36{clip-path:url(#clippath);}.cls-7{fill:#33549e;}.cls-37{letter-spacing:-.12em;}.cls-8{fill:#ebecf5;}.cls-25,.cls-26{font-size:9px;}.cls-25,.cls-27{fill:#4d4d4d;}.cls-9{fill:#9ea5ce;}.cls-26{fill:#1a1a1a;}.cls-27{font-size:8.99px;}.cls-38{letter-spacing:-.02em;}.cls-39{letter-spacing:-.02em;}.cls-31{stroke:#333;}.cls-40{letter-spacing:-.02em;}.cls-41{letter-spacing:-.02em;}.cls-42{clip-path:url(#clippath-1);}.cls-43{clip-path:url(#clippath-4);}.cls-44{clip-path:url(#clippath-3);}.cls-45{clip-path:url(#clippath-2);}.cls-46{clip-path:url(#clippath-7);}.cls-47{clip-path:url(#clippath-6);}.cls-48{clip-path:url(#clippath-5);}.cls-10{fill:#7783bb;}.cls-32{stroke-width:2.13px;}.cls-32,.cls-33,.cls-34{stroke:#000;}.cls-49{letter-spacing:0em;}.cls-11,.cls-4,.cls-14{fill:#005a32;}.cls-12{fill:#4c63a7;}.cls-50{clip-path:url(#clippath-15);}.cls-51{clip-path:url(#clippath-19);}.cls-52{clip-path:url(#clippath-11);}.cls-53{letter-spacing:-.02em;}.cls-54{letter-spacing:0em;}.cls-13{fill:#551a8b;}.cls-28{font-size:13px;}.cls-55{letter-spacing:-.03em;}.cls-18{fill:#b1b6d8;}.cls-56{letter-spacing:0em;}.cls-57{letter-spacing:-.02em;}.cls-58{letter-spacing:0em;}.cls-20{fill:#fff;}.cls-34{stroke-miterlimit:10;stroke-width:.21px;}.cls-59{letter-spacing:0em;}.cls-21{fill:#6273b1;}</style><clipPath id="clippath"><rect class="cls-5" x=".54" y=".54" width="255.48" height="279.79"/></clipPath><clipPath id="clippath-1"><rect class="cls-5" x="113.8" y="23.68" width="136.73" height="170.92"/></clipPath><clipPath id="clippath-2"><rect class="cls-5" x="256.01" y="4.39" width="536.52" height="272.08"/></clipPath><clipPath id="clippath-3"><rect class="cls-5" x="277.3" y="36.59" width="123.33" height="154.16"/></clipPath><clipPath id="clippath-4"><rect class="cls-5" x="406.11" y="36.59" width="123.33" height="154.16"/></clipPath><clipPath id="clippath-5"><rect class="cls-5" x="534.92" y="36.59" width="123.33" height="154.16"/></clipPath><clipPath id="clippath-6"><rect class="cls-5" x="663.73" y="36.59" width="123.33" height="154.16"/></clipPath><clipPath id="clippath-7"><rect class="cls-5" x="277.3" y="9.87" width="123.33" height="26.71"/></clipPath><clipPath id="clippath-11"><rect class="cls-5" x="406.11" y="9.87" width="123.33" height="26.71"/></clipPath><clipPath id="clippath-15"><rect class="cls-5" x="534.92" y="9.87" width="123.33" height="26.71"/></clipPath><clipPath id="clippath-19"><rect class="cls-5" x="663.73" y="9.87" width="123.33" height="26.71"/></clipPath></defs><g class="cls-36"><rect class="cls-20" x=".54" y=".54" width="255.48" height="279.79"/><rect class="cls-30" x=".54" y=".54" width="255.48" height="279.79"/></g><g class="cls-42"><rect class="cls-20" x="113.8" y="23.68" width="136.73" height="170.92"/><rect class="cls-9" x="113.8" y="57.87" width="34.18" height="34.18"/><rect class="cls-34" x="113.8" y="57.87" width="34.18" height="34.18"/><rect class="cls-8" x="113.8" y="126.24" width="34.18" height="34.18"/><rect class="cls-34" x="113.8" y="126.24" width="34.18" height="34.18"/><rect class="cls-7" x="147.98" y="92.06" width="34.18" height="34.18"/><rect class="cls-34" x="147.98" y="92.06" width="34.18" height="34.18"/><rect class="cls-21" x="182.17" y="57.87" width="34.18" height="34.18"/><rect class="cls-34" x="182.17" y="57.87" width="34.18" height="34.18"/><rect class="cls-12" x="182.17" y="92.06" width="34.18" height="34.18"/><rect class="cls-34" x="182.17" y="92.06" width="34.18" height="34.18"/><rect class="cls-12" x="182.17" y="92.06" width="34.18" height="34.18"/><rect class="cls-34" x="182.17" y="92.06" width="34.18" height="34.18"/><rect class="cls-8" x="113.8" y="92.06" width="34.18" height="34.18"/><rect class="cls-34" x="113.8" y="92.06" width="34.18" height="34.18"/><rect class="cls-21" x="182.17" y="57.87" width="34.18" height="34.18"/><rect class="cls-34" x="182.17" y="57.87" width="34.18" height="34.18"/><rect class="cls-6" x="216.36" y="57.87" width="34.18" height="34.18"/><rect class="cls-34" x="216.36" y="57.87" width="34.18" height="34.18"/><rect class="cls-10" x="182.17" y="160.42" width="34.18" height="34.18"/><rect class="cls-34" x="182.17" y="160.42" width="34.18" height="34.18"/><rect class="cls-10" x="182.17" y="160.42" width="34.18" height="34.18"/><rect class="cls-34" x="182.17" y="160.42" width="34.18" height="34.18"/><rect class="cls-21" x="182.17" y="57.87" width="34.18" height="34.18"/><rect class="cls-34" x="182.17" y="57.87" width="34.18" height="34.18"/><rect class="cls-9" x="113.8" y="57.87" width="34.18" height="34.18"/><rect class="cls-34" x="113.8" y="57.87" width="34.18" height="34.18"/><rect class="cls-18" x="147.98" y="57.87" width="34.18" height="34.18"/><rect class="cls-34" x="147.98" y="57.87" width="34.18" height="34.18"/><rect class="cls-6" x="216.36" y="57.87" width="34.18" height="34.18"/><rect class="cls-34" x="216.36" y="57.87" width="34.18" height="34.18"/><rect class="cls-6" x="216.36" y="57.87" width="34.18" height="34.18"/><rect class="cls-34" x="216.36" y="57.87" width="34.18" height="34.18"/><rect class="cls-6" x="216.36" y="57.87" width="34.18" height="34.18"/><rect class="cls-34" x="216.36" y="57.87" width="34.18" height="34.18"/><rect class="cls-6" x="216.36" y="57.87" width="34.18" height="34.18"/><rect class="cls-34" x="216.36" y="57.87" width="34.18" height="34.18"/><rect class="cls-7" x="147.98" y="92.06" width="34.18" height="34.18"/><rect class="cls-34" x="147.98" y="92.06" width="34.18" height="34.18"/><rect class="cls-7" x="147.98" y="92.06" width="34.18" height="34.18"/><rect class="cls-34" x="147.98" y="92.06" width="34.18" height="34.18"/><rect class="cls-9" x="113.8" y="57.87" width="34.18" height="34.18"/><rect class="cls-34" x="113.8" y="57.87" width="34.18" height="34.18"/><rect class="cls-9" x="113.8" y="57.87" width="34.18" height="34.18"/><rect class="cls-34" x="113.8" y="57.87" width="34.18" height="34.18"/><rect class="cls-9" x="113.8" y="57.87" width="34.18" height="34.18"/><rect class="cls-34" x="113.8" y="57.87" width="34.18" height="34.18"/><rect class="cls-12" x="182.17" y="92.06" width="34.18" height="34.18"/><rect class="cls-34" x="182.17" y="92.06" width="34.18" height="34.18"/><rect class="cls-12" x="182.17" y="92.06" width="34.18" height="34.18"/><rect class="cls-34" x="182.17" y="92.06" width="34.18" height="34.18"/><rect class="cls-21" x="182.17" y="57.87" width="34.18" height="34.18"/><rect class="cls-34" x="182.17" y="57.87" width="34.18" height="34.18"/><rect class="cls-10" x="182.17" y="160.42" width="34.18" height="34.18"/><rect class="cls-34" x="182.17" y="160.42" width="34.18" height="34.18"/><rect class="cls-10" x="182.17" y="160.42" width="34.18" height="34.18"/><rect class="cls-34" x="182.17" y="160.42" width="34.18" height="34.18"/><rect class="cls-8" x="182.17" y="23.69" width="34.18" height="34.18"/><rect class="cls-34" x="182.17" y="23.69" width="34.18" height="34.18"/><rect class="cls-6" x="216.36" y="57.87" width="34.18" height="34.18"/><rect class="cls-34" x="216.36" y="57.87" width="34.18" height="34.18"/><rect class="cls-6" x="216.36" y="57.87" width="34.18" height="34.18"/><rect class="cls-34" x="216.36" y="57.87" width="34.18" height="34.18"/><rect class="cls-21" x="182.17" y="57.87" width="34.18" height="34.18"/><rect class="cls-34" x="182.17" y="57.87" width="34.18" height="34.18"/><rect class="cls-21" x="182.17" y="57.87" width="34.18" height="34.18"/><rect class="cls-34" x="182.17" y="57.87" width="34.18" height="34.18"/><rect class="cls-12" x="182.17" y="92.06" width="34.18" height="34.18"/><rect class="cls-34" x="182.17" y="92.06" width="34.18" height="34.18"/><rect class="cls-6" x="216.36" y="57.87" width="34.18" height="34.18"/><rect class="cls-34" x="216.36" y="57.87" width="34.18" height="34.18"/><rect class="cls-7" x="147.98" y="92.06" width="34.18" height="34.18"/><rect class="cls-34" x="147.98" y="92.06" width="34.18" height="34.18"/><rect class="cls-7" x="147.98" y="92.06" width="34.18" height="34.18"/><rect class="cls-34" x="147.98" y="92.06" width="34.18" height="34.18"/><rect class="cls-7" x="147.98" y="92.06" width="34.18" height="34.18"/><rect class="cls-34" x="147.98" y="92.06" width="34.18" height="34.18"/><rect class="cls-18" x="147.98" y="57.87" width="34.18" height="34.18"/><rect class="cls-34" x="147.98" y="57.87" width="34.18" height="34.18"/><rect class="cls-6" x="216.36" y="57.87" width="34.18" height="34.18"/><rect class="cls-34" x="216.36" y="57.87" width="34.18" height="34.18"/><rect class="cls-6" x="216.36" y="57.87" width="34.18" height="34.18"/><rect class="cls-34" x="216.36" y="57.87" width="34.18" height="34.18"/><rect class="cls-10" x="182.17" y="160.42" width="34.18" height="34.18"/><rect class="cls-34" x="182.17" y="160.42" width="34.18" height="34.18"/><rect class="cls-10" x="182.17" y="160.42" width="34.18" height="34.18"/><rect class="cls-34" x="182.17" y="160.42" width="34.18" height="34.18"/><rect class="cls-8" x="147.98" y="160.42" width="34.18" height="34.18"/><rect class="cls-34" x="147.98" y="160.42" width="34.18" height="34.18"/><rect class="cls-21" x="182.17" y="57.87" width="34.18" height="34.18"/><rect class="cls-34" x="182.17" y="57.87" width="34.18" height="34.18"/><rect class="cls-21" x="182.17" y="57.87" width="34.18" height="34.18"/><rect class="cls-34" x="182.17" y="57.87" width="34.18" height="34.18"/><rect class="cls-10" x="182.17" y="160.42" width="34.18" height="34.18"/><rect class="cls-34" x="182.17" y="160.42" width="34.18" height="34.18"/><rect class="cls-8" x="113.8" y="160.42" width="34.18" height="34.18"/><rect class="cls-34" x="113.8" y="160.42" width="34.18" height="34.18"/><rect class="cls-7" x="147.98" y="92.06" width="34.18" height="34.18"/><rect class="cls-34" x="147.98" y="92.06" width="34.18" height="34.18"/><rect class="cls-7" x="147.98" y="92.06" width="34.18" height="34.18"/><rect class="cls-34" x="147.98" y="92.06" width="34.18" height="34.18"/><rect class="cls-7" x="147.98" y="92.06" width="34.18" height="34.18"/><rect class="cls-34" x="147.98" y="92.06" width="34.18" height="34.18"/><rect class="cls-6" x="216.36" y="57.87" width="34.18" height="34.18"/><rect class="cls-34" x="216.36" y="57.87" width="34.18" height="34.18"/><rect class="cls-18" x="147.98" y="57.87" width="34.18" height="34.18"/><rect class="cls-34" x="147.98" y="57.87" width="34.18" height="34.18"/><rect class="cls-18" x="147.98" y="57.87" width="34.18" height="34.18"/><rect class="cls-34" x="147.98" y="57.87" width="34.18" height="34.18"/><rect class="cls-12" x="182.17" y="92.06" width="34.18" height="34.18"/><rect class="cls-34" x="182.17" y="92.06" width="34.18" height="34.18"/><rect class="cls-12" x="182.17" y="92.06" width="34.18" height="34.18"/><rect class="cls-34" x="182.17" y="92.06" width="34.18" height="34.18"/><rect class="cls-12" x="182.17" y="92.06" width="34.18" height="34.18"/><rect class="cls-34" x="182.17" y="92.06" width="34.18" height="34.18"/><rect class="cls-8" x="182.17" y="126.24" width="34.18" height="34.18"/><rect class="cls-34" x="182.17" y="126.24" width="34.18" height="34.18"/><rect class="cls-7" x="147.98" y="92.06" width="34.18" height="34.18"/><rect class="cls-34" x="147.98" y="92.06" width="34.18" height="34.18"/><rect class="cls-12" x="182.17" y="92.06" width="34.18" height="34.18"/><rect class="cls-34" x="182.17" y="92.06" width="34.18" height="34.18"/><rect class="cls-20" x="113.8" y="23.69" width="34.18" height="34.18"/><rect class="cls-34" x="113.8" y="23.69" width="34.18" height="34.18"/><rect class="cls-20" x="147.98" y="126.24" width="34.18" height="34.18"/><rect class="cls-34" x="147.98" y="126.24" width="34.18" height="34.18"/><rect class="cls-20" x="147.98" y="23.69" width="34.18" height="34.18"/><rect class="cls-34" x="147.98" y="23.69" width="34.18" height="34.18"/><rect class="cls-20" x="216.36" y="160.42" width="34.18" height="34.18"/><rect class="cls-34" x="216.36" y="160.42" width="34.18" height="34.18"/><rect class="cls-20" x="216.36" y="126.24" width="34.18" height="34.18"/><rect class="cls-34" x="216.36" y="126.24" width="34.18" height="34.18"/><rect class="cls-20" x="216.36" y="92.06" width="34.18" height="34.18"/><rect class="cls-34" x="216.36" y="92.06" width="34.18" height="34.18"/><rect class="cls-20" x="216.36" y="23.69" width="34.18" height="34.18"/><rect class="cls-34" x="216.36" y="23.69" width="34.18" height="34.18"/><text class="cls-29" transform="translate(127.83 78.9)"><tspan x="0" y="0">5</tspan></text><text class="cls-29" transform="translate(127.83 147.27)"><tspan x="0" y="0">1</tspan></text><text class="cls-29" transform="translate(158.97 113.09)"><tspan x="0" y="0">10</tspan></text><text class="cls-29" transform="translate(196.2 78.9)"><tspan x="0" y="0">8</tspan></text><text class="cls-29" transform="translate(196.2 113.09)"><tspan x="0" y="0">9</tspan></text><text class="cls-29" transform="translate(196.2 113.09)"><tspan x="0" y="0">9</tspan></text><text class="cls-29" transform="translate(127.83 113.09)"><tspan x="0" y="0">1</tspan></text><text class="cls-29" transform="translate(196.2 78.9)"><tspan x="0" y="0">8</tspan></text><text class="cls-29" transform="translate(227.33 78.9)"><tspan x="0" y="0">11</tspan></text><text class="cls-29" transform="translate(196.2 181.46)"><tspan x="0" y="0">7</tspan></text><text class="cls-29" transform="translate(196.2 181.46)"><tspan x="0" y="0">7</tspan></text><text class="cls-29" transform="translate(196.2 78.9)"><tspan x="0" y="0">8</tspan></text><text class="cls-29" transform="translate(127.83 78.9)"><tspan x="0" y="0">5</tspan></text><text class="cls-29" transform="translate(162.03 78.9)"><tspan x="0" y="0">4</tspan></text><text class="cls-29" transform="translate(227.33 78.9)"><tspan x="0" y="0">11</tspan></text><text class="cls-29" transform="translate(227.33 78.9)"><tspan x="0" y="0">11</tspan></text><text class="cls-29" transform="translate(227.33 78.9)"><tspan x="0" y="0">11</tspan></text><text class="cls-29" transform="translate(227.33 78.9)"><tspan x="0" y="0">11</tspan></text><text class="cls-29" transform="translate(158.97 113.09)"><tspan x="0" y="0">10</tspan></text><text class="cls-29" transform="translate(158.97 113.09)"><tspan x="0" y="0">10</tspan></text><text class="cls-29" transform="translate(127.83 78.9)"><tspan x="0" y="0">5</tspan></text><text class="cls-29" transform="translate(127.83 78.9)"><tspan x="0" y="0">5</tspan></text><text class="cls-29" transform="translate(127.83 78.9)"><tspan x="0" y="0">5</tspan></text><text class="cls-29" transform="translate(196.2 113.09)"><tspan x="0" y="0">9</tspan></text><text class="cls-29" transform="translate(196.2 113.09)"><tspan x="0" y="0">9</tspan></text><text class="cls-29" transform="translate(196.2 78.9)"><tspan x="0" y="0">8</tspan></text><text class="cls-29" transform="translate(196.2 181.46)"><tspan x="0" y="0">7</tspan></text><text class="cls-29" transform="translate(196.2 181.46)"><tspan x="0" y="0">7</tspan></text><text class="cls-29" transform="translate(196.2 44.72)"><tspan x="0" y="0">1</tspan></text><text class="cls-29" transform="translate(227.33 78.9)"><tspan x="0" y="0">11</tspan></text><text class="cls-29" transform="translate(227.33 78.9)"><tspan x="0" y="0">11</tspan></text><text class="cls-29" transform="translate(196.2 78.9)"><tspan x="0" y="0">8</tspan></text><text class="cls-29" transform="translate(196.2 78.9)"><tspan x="0" y="0">8</tspan></text><text class="cls-29" transform="translate(196.2 113.09)"><tspan x="0" y="0">9</tspan></text><text class="cls-29" transform="translate(227.33 78.9)"><tspan x="0" y="0">11</tspan></text><text class="cls-29" transform="translate(158.97 113.09)"><tspan x="0" y="0">10</tspan></text><text class="cls-29" transform="translate(158.97 113.09)"><tspan x="0" y="0">10</tspan></text><text class="cls-29" transform="translate(158.97 113.09)"><tspan x="0" y="0">10</tspan></text><text class="cls-29" transform="translate(162.03 78.9)"><tspan x="0" y="0">4</tspan></text><text class="cls-29" transform="translate(227.33 78.9)"><tspan x="0" y="0">11</tspan></text><text class="cls-29" transform="translate(227.33 78.9)"><tspan x="0" y="0">11</tspan></text><text class="cls-29" transform="translate(196.2 181.46)"><tspan x="0" y="0">7</tspan></text><text class="cls-29" transform="translate(196.2 181.46)"><tspan x="0" y="0">7</tspan></text><text class="cls-29" transform="translate(162.03 181.46)"><tspan x="0" y="0">1</tspan></text><text class="cls-29" transform="translate(196.2 78.9)"><tspan x="0" y="0">8</tspan></text><text class="cls-29" transform="translate(196.2 78.9)"><tspan x="0" y="0">8</tspan></text><text class="cls-29" transform="translate(196.2 181.46)"><tspan x="0" y="0">7</tspan></text><text class="cls-29" transform="translate(127.83 181.46)"><tspan x="0" y="0">1</tspan></text><text class="cls-29" transform="translate(158.97 113.09)"><tspan x="0" y="0">10</tspan></text><text class="cls-29" transform="translate(158.97 113.09)"><tspan x="0" y="0">10</tspan></text><text class="cls-29" transform="translate(158.97 113.09)"><tspan x="0" y="0">10</tspan></text><text class="cls-29" transform="translate(227.33 78.9)"><tspan x="0" y="0">11</tspan></text><text class="cls-29" transform="translate(162.03 78.9)"><tspan x="0" y="0">4</tspan></text><text class="cls-29" transform="translate(162.03 78.9)"><tspan x="0" y="0">4</tspan></text><text class="cls-29" transform="translate(196.2 113.09)"><tspan x="0" y="0">9</tspan></text><text class="cls-29" transform="translate(196.2 113.09)"><tspan x="0" y="0">9</tspan></text><text class="cls-29" transform="translate(196.2 113.09)"><tspan x="0" y="0">9</tspan></text><text class="cls-29" transform="translate(196.2 147.27)"><tspan x="0" y="0">1</tspan></text><text class="cls-29" transform="translate(158.97 113.09)"><tspan x="0" y="0">10</tspan></text><text class="cls-29" transform="translate(196.2 113.09)"><tspan x="0" y="0">9</tspan></text></g><line class="cls-33" x1="113.8" y1="194.6" x2="113.8" y2="23.69"/><text class="cls-25" transform="translate(21.85 180.73)"><tspan x="0" y="0">biomass height stems</tspan></text><text class="cls-25" transform="translate(53.85 146.55)"><tspan x="0" y="0">not measured</tspan></text><text class="cls-25" transform="translate(19.08 112.38)"><tspan x="0" y="0">putati</tspan><tspan class="cls-38" x="22.02" y="0">v</tspan><tspan x="26.3" y="0">e C assimilation</tspan></text><text class="cls-25" transform="translate(57.58 78.18)"><tspan class="cls-58" x="0" y="0">r</tspan><tspan x="2.91" y="0">adial gr</tspan><tspan class="cls-57" x="32.43" y="0">o</tspan><tspan x="37.3" y="0">wth</tspan></text><text class="cls-25" transform="translate(48.93 44.01)"><tspan x="0" y="0">root:shoot </tspan><tspan class="cls-58" x="42.53" y="0">r</tspan><tspan x="45.43" y="0">atio</tspan></text><line class="cls-31" x1="111.06" y1="177.51" x2="113.8" y2="177.51"/><line class="cls-31" x1="111.06" y1="143.33" x2="113.8" y2="143.33"/><line class="cls-31" x1="111.06" y1="109.15" x2="113.8" y2="109.15"/><line class="cls-31" x1="111.06" y1="74.96" x2="113.8" y2="74.96"/><line class="cls-31" x1="111.06" y1="40.78" x2="113.8" y2="40.78"/><line class="cls-33" x1="113.8" y1="194.6" x2="250.54" y2="194.6"/><line class="cls-31" x1="130.9" y1="197.34" x2="130.9" y2="194.6"/><line class="cls-31" x1="165.09" y1="197.34" x2="165.09" y2="194.6"/><line class="cls-31" x1="199.26" y1="197.34" x2="199.26" y2="194.6"/><line class="cls-31" x1="233.45" y1="197.34" x2="233.45" y2="194.6"/><text class="cls-27" transform="translate(88.78 250.8) rotate(-45)"><tspan x="0" y="0">climate and date</tspan></text><text class="cls-27" transform="translate(130.75 243.01) rotate(-45)"><tspan x="0" y="0">not measured</tspan></text><text class="cls-27" transform="translate(147.56 260.39) rotate(-45)"><tspan class="cls-40" x="0" y="0">v</tspan><tspan class="cls-59" x="4.27" y="0">egtati</tspan><tspan class="cls-39" x="26.28" y="0">v</tspan><tspan class="cls-59" x="30.56" y="0">e phenology</tspan></text><text class="cls-27" transform="translate(191.74 250.38) rotate(-45)"><tspan class="cls-35" x="0" y="0">w</tspan><tspan x="6.41" y="0">ood phenology</tspan></text><text class="cls-28" transform="translate(113.81 15.34)"><tspan class="cls-37" x="0" y="0">T</tspan><tspan x="6.39" y="0">otal # of studies</tspan></text><g class="cls-45"><rect class="cls-20" x="256.01" y="4.39" width="536.52" height="272.08"/><rect class="cls-30" x="256.01" y="4.39" width="536.52" height="272.08"/></g><g class="cls-44"><rect class="cls-20" x="277.3" y="36.59" width="123.33" height="154.16"/><rect class="cls-14" x="369.8" y="67.42" width="30.83" height="30.83"/><rect class="cls-34" x="369.8" y="67.42" width="30.83" height="30.83"/><rect class="cls-14" x="338.96" y="159.92" width="30.83" height="30.83"/><rect class="cls-34" x="338.96" y="159.92" width="30.83" height="30.83"/><rect class="cls-14" x="338.96" y="159.92" width="30.83" height="30.83"/><rect class="cls-34" x="338.96" y="159.92" width="30.83" height="30.83"/><rect class="cls-14" x="369.8" y="67.42" width="30.83" height="30.83"/><rect class="cls-34" x="369.8" y="67.42" width="30.83" height="30.83"/><rect class="cls-4" x="338.96" y="98.25" width="30.83" height="30.83"/><rect class="cls-34" x="338.96" y="98.25" width="30.83" height="30.83"/><rect class="cls-4" x="338.96" y="98.25" width="30.83" height="30.83"/><rect class="cls-34" x="338.96" y="98.25" width="30.83" height="30.83"/><rect class="cls-14" x="338.96" y="159.92" width="30.83" height="30.83"/><rect class="cls-34" x="338.96" y="159.92" width="30.83" height="30.83"/><rect class="cls-11" x="338.96" y="36.59" width="30.83" height="30.83"/><rect class="cls-34" x="338.96" y="36.59" width="30.83" height="30.83"/><rect class="cls-14" x="369.8" y="67.42" width="30.83" height="30.83"/><rect class="cls-34" x="369.8" y="67.42" width="30.83" height="30.83"/><rect class="cls-4" x="338.96" y="98.25" width="30.83" height="30.83"/><rect class="cls-34" x="338.96" y="98.25" width="30.83" height="30.83"/><rect class="cls-14" x="369.8" y="67.42" width="30.83" height="30.83"/><rect class="cls-34" x="369.8" y="67.42" width="30.83" height="30.83"/><rect class="cls-14" x="338.96" y="159.92" width="30.83" height="30.83"/><rect class="cls-34" x="338.96" y="159.92" width="30.83" height="30.83"/><rect class="cls-14" x="338.96" y="159.92" width="30.83" height="30.83"/><rect class="cls-34" x="338.96" y="159.92" width="30.83" height="30.83"/><rect class="cls-14" x="369.8" y="67.42" width="30.83" height="30.83"/><rect class="cls-34" x="369.8" y="67.42" width="30.83" height="30.83"/><rect class="cls-34" x="277.3" y="159.92" width="30.83" height="30.83"/><rect class="cls-34" x="277.3" y="129.08" width="30.83" height="30.83"/><rect class="cls-34" x="277.3" y="98.25" width="30.83" height="30.83"/><rect class="cls-34" x="277.3" y="67.42" width="30.83" height="30.83"/><rect class="cls-34" x="277.3" y="36.59" width="30.83" height="30.83"/><rect class="cls-34" x="308.12" y="159.92" width="30.83" height="30.83"/><rect class="cls-34" x="308.12" y="129.08" width="30.83" height="30.83"/><rect class="cls-34" x="308.12" y="98.25" width="30.83" height="30.83"/><rect class="cls-34" x="308.12" y="67.42" width="30.83" height="30.83"/><rect class="cls-34" x="308.12" y="36.59" width="30.83" height="30.83"/><rect class="cls-34" x="338.96" y="129.08" width="30.83" height="30.83"/><rect class="cls-34" x="338.96" y="67.42" width="30.83" height="30.83"/><rect class="cls-34" x="369.8" y="159.92" width="30.83" height="30.83"/><rect class="cls-34" x="369.8" y="129.08" width="30.83" height="30.83"/><rect class="cls-34" x="369.8" y="98.25" width="30.83" height="30.83"/><rect class="cls-34" x="369.8" y="36.59" width="30.83" height="30.83"/><text class="cls-29" transform="translate(382.16 86.78)"><tspan x="0" y="0">5</tspan></text><text class="cls-29" transform="translate(351.31 179.27)"><tspan x="0" y="0">5</tspan></text><text class="cls-29" transform="translate(351.31 179.27)"><tspan x="0" y="0">5</tspan></text><text class="cls-29" transform="translate(382.16 86.78)"><tspan x="0" y="0">5</tspan></text><text class="cls-2" transform="translate(351.31 117.61)"><tspan x="0" y="0">3</tspan></text><text class="cls-2" transform="translate(351.31 117.61)"><tspan x="0" y="0">3</tspan></text><text class="cls-29" transform="translate(351.31 179.27)"><tspan x="0" y="0">5</tspan></text><text class="cls-24" transform="translate(351.31 55.95)"><tspan x="0" y="0">1</tspan></text><text class="cls-29" transform="translate(382.16 86.78)"><tspan x="0" y="0">5</tspan></text><text class="cls-2" transform="translate(351.31 117.61)"><tspan x="0" y="0">3</tspan></text><text class="cls-29" transform="translate(382.16 86.78)"><tspan x="0" y="0">5</tspan></text><text class="cls-29" transform="translate(351.31 179.27)"><tspan x="0" y="0">5</tspan></text><text class="cls-29" transform="translate(351.31 179.27)"><tspan x="0" y="0">5</tspan></text><text class="cls-29" transform="translate(382.16 86.78)"><tspan x="0" y="0">5</tspan></text></g><g class="cls-43"><rect class="cls-20" x="406.11" y="36.59" width="123.33" height="154.16"/><rect class="cls-1" x="467.77" y="67.42" width="30.83" height="30.83"/><rect class="cls-34" x="467.77" y="67.42" width="30.83" height="30.83"/><rect class="cls-1" x="467.77" y="67.42" width="30.83" height="30.83"/><rect class="cls-34" x="467.77" y="67.42" width="30.83" height="30.83"/><rect class="cls-15" x="498.61" y="67.42" width="30.83" height="30.83"/><rect class="cls-34" x="498.61" y="67.42" width="30.83" height="30.83"/><rect class="cls-1" x="467.77" y="67.42" width="30.83" height="30.83"/><rect class="cls-34" x="467.77" y="67.42" width="30.83" height="30.83"/><rect class="cls-19" x="467.77" y="159.92" width="30.83" height="30.83"/><rect class="cls-34" x="467.77" y="159.92" width="30.83" height="30.83"/><rect class="cls-15" x="498.61" y="67.42" width="30.83" height="30.83"/><rect class="cls-34" x="498.61" y="67.42" width="30.83" height="30.83"/><rect class="cls-1" x="467.77" y="98.25" width="30.83" height="30.83"/><rect class="cls-34" x="467.77" y="98.25" width="30.83" height="30.83"/><rect class="cls-1" x="467.77" y="98.25" width="30.83" height="30.83"/><rect class="cls-34" x="467.77" y="98.25" width="30.83" height="30.83"/><rect class="cls-19" x="467.77" y="129.08" width="30.83" height="30.83"/><rect class="cls-34" x="467.77" y="129.08" width="30.83" height="30.83"/><rect class="cls-1" x="467.77" y="98.25" width="30.83" height="30.83"/><rect class="cls-34" x="467.77" y="98.25" width="30.83" height="30.83"/><rect class="cls-34" x="406.11" y="159.92" width="30.83" height="30.83"/><rect class="cls-34" x="406.11" y="129.08" width="30.83" height="30.83"/><rect class="cls-34" x="406.11" y="98.25" width="30.83" height="30.83"/><rect class="cls-34" x="406.11" y="67.42" width="30.83" height="30.83"/><rect class="cls-34" x="406.11" y="36.59" width="30.83" height="30.83"/><rect class="cls-34" x="436.93" y="159.92" width="30.83" height="30.83"/><rect class="cls-34" x="436.93" y="129.08" width="30.83" height="30.83"/><rect class="cls-34" x="436.93" y="98.25" width="30.83" height="30.83"/><rect class="cls-34" x="436.93" y="67.42" width="30.83" height="30.83"/><rect class="cls-34" x="436.93" y="36.59" width="30.83" height="30.83"/><rect class="cls-34" x="467.77" y="36.59" width="30.83" height="30.83"/><rect class="cls-34" x="498.61" y="159.92" width="30.83" height="30.83"/><rect class="cls-34" x="498.61" y="129.08" width="30.83" height="30.83"/><rect class="cls-34" x="498.61" y="98.25" width="30.83" height="30.83"/><rect class="cls-34" x="498.61" y="36.59" width="30.83" height="30.83"/><text class="cls-2" transform="translate(480.12 86.78)"><tspan x="0" y="0">3</tspan></text><text class="cls-2" transform="translate(480.12 86.78)"><tspan x="0" y="0">3</tspan></text><text class="cls-23" transform="translate(510.96 86.78)"><tspan x="0" y="0">2</tspan></text><text class="cls-2" transform="translate(480.12 86.78)"><tspan x="0" y="0">3</tspan></text><text class="cls-24" transform="translate(480.12 179.27)"><tspan x="0" y="0">1</tspan></text><text class="cls-23" transform="translate(510.96 86.78)"><tspan x="0" y="0">2</tspan></text><text class="cls-2" transform="translate(480.12 117.61)"><tspan x="0" y="0">3</tspan></text><text class="cls-2" transform="translate(480.12 117.61)"><tspan x="0" y="0">3</tspan></text><text class="cls-24" transform="translate(480.12 148.44)"><tspan x="0" y="0">1</tspan></text><text class="cls-2" transform="translate(480.12 117.61)"><tspan x="0" y="0">3</tspan></text></g><g class="cls-48"><rect class="cls-20" x="534.92" y="36.59" width="123.33" height="154.16"/><rect class="cls-6" x="534.92" y="67.42" width="30.83" height="30.83"/><rect class="cls-34" x="534.92" y="67.42" width="30.83" height="30.83"/><rect class="cls-16" x="534.92" y="129.08" width="30.83" height="30.83"/><rect class="cls-34" x="534.92" y="129.08" width="30.83" height="30.83"/><rect class="cls-6" x="565.75" y="98.25" width="30.83" height="30.83"/><rect class="cls-34" x="565.75" y="98.25" width="30.83" height="30.83"/><rect class="cls-17" x="596.58" y="67.42" width="30.83" height="30.83"/><rect class="cls-34" x="596.58" y="67.42" width="30.83" height="30.83"/><rect class="cls-3" x="596.58" y="98.25" width="30.83" height="30.83"/><rect class="cls-34" x="596.58" y="98.25" width="30.83" height="30.83"/><rect class="cls-3" x="596.58" y="98.25" width="30.83" height="30.83"/><rect class="cls-34" x="596.58" y="98.25" width="30.83" height="30.83"/><rect class="cls-16" x="534.92" y="98.25" width="30.83" height="30.83"/><rect class="cls-34" x="534.92" y="98.25" width="30.83" height="30.83"/><rect class="cls-6" x="534.92" y="67.42" width="30.83" height="30.83"/><rect class="cls-34" x="534.92" y="67.42" width="30.83" height="30.83"/><rect class="cls-17" x="565.75" y="67.42" width="30.83" height="30.83"/><rect class="cls-34" x="565.75" y="67.42" width="30.83" height="30.83"/><rect class="cls-17" x="627.42" y="67.42" width="30.83" height="30.83"/><rect class="cls-34" x="627.42" y="67.42" width="30.83" height="30.83"/><rect class="cls-17" x="627.42" y="67.42" width="30.83" height="30.83"/><rect class="cls-34" x="627.42" y="67.42" width="30.83" height="30.83"/><rect class="cls-6" x="565.75" y="98.25" width="30.83" height="30.83"/><rect class="cls-34" x="565.75" y="98.25" width="30.83" height="30.83"/><rect class="cls-6" x="565.75" y="98.25" width="30.83" height="30.83"/><rect class="cls-34" x="565.75" y="98.25" width="30.83" height="30.83"/><rect class="cls-6" x="534.92" y="67.42" width="30.83" height="30.83"/><rect class="cls-34" x="534.92" y="67.42" width="30.83" height="30.83"/><rect class="cls-6" x="534.92" y="67.42" width="30.83" height="30.83"/><rect class="cls-34" x="534.92" y="67.42" width="30.83" height="30.83"/><rect class="cls-6" x="534.92" y="67.42" width="30.83" height="30.83"/><rect class="cls-34" x="534.92" y="67.42" width="30.83" height="30.83"/><rect class="cls-17" x="627.42" y="67.42" width="30.83" height="30.83"/><rect class="cls-34" x="627.42" y="67.42" width="30.83" height="30.83"/><rect class="cls-17" x="596.58" y="67.42" width="30.83" height="30.83"/><rect class="cls-34" x="596.58" y="67.42" width="30.83" height="30.83"/><rect class="cls-17" x="627.42" y="67.42" width="30.83" height="30.83"/><rect class="cls-34" x="627.42" y="67.42" width="30.83" height="30.83"/><rect class="cls-6" x="565.75" y="98.25" width="30.83" height="30.83"/><rect class="cls-34" x="565.75" y="98.25" width="30.83" height="30.83"/><rect class="cls-6" x="565.75" y="98.25" width="30.83" height="30.83"/><rect class="cls-34" x="565.75" y="98.25" width="30.83" height="30.83"/><rect class="cls-6" x="565.75" y="98.25" width="30.83" height="30.83"/><rect class="cls-34" x="565.75" y="98.25" width="30.83" height="30.83"/><rect class="cls-17" x="565.75" y="67.42" width="30.83" height="30.83"/><rect class="cls-34" x="565.75" y="67.42" width="30.83" height="30.83"/><rect class="cls-16" x="565.75" y="159.92" width="30.83" height="30.83"/><rect class="cls-34" x="565.75" y="159.92" width="30.83" height="30.83"/><rect class="cls-17" x="596.58" y="67.42" width="30.83" height="30.83"/><rect class="cls-34" x="596.58" y="67.42" width="30.83" height="30.83"/><rect class="cls-17" x="596.58" y="67.42" width="30.83" height="30.83"/><rect class="cls-34" x="596.58" y="67.42" width="30.83" height="30.83"/><rect class="cls-6" x="565.75" y="98.25" width="30.83" height="30.83"/><rect class="cls-34" x="565.75" y="98.25" width="30.83" height="30.83"/><rect class="cls-6" x="565.75" y="98.25" width="30.83" height="30.83"/><rect class="cls-34" x="565.75" y="98.25" width="30.83" height="30.83"/><rect class="cls-6" x="565.75" y="98.25" width="30.83" height="30.83"/><rect class="cls-34" x="565.75" y="98.25" width="30.83" height="30.83"/><rect class="cls-17" x="565.75" y="67.42" width="30.83" height="30.83"/><rect class="cls-34" x="565.75" y="67.42" width="30.83" height="30.83"/><rect class="cls-17" x="565.75" y="67.42" width="30.83" height="30.83"/><rect class="cls-34" x="565.75" y="67.42" width="30.83" height="30.83"/><rect class="cls-3" x="596.58" y="98.25" width="30.83" height="30.83"/><rect class="cls-34" x="596.58" y="98.25" width="30.83" height="30.83"/><rect class="cls-6" x="565.75" y="98.25" width="30.83" height="30.83"/><rect class="cls-34" x="565.75" y="98.25" width="30.83" height="30.83"/><rect class="cls-34" x="534.92" y="159.92" width="30.83" height="30.83"/><rect class="cls-34" x="534.92" y="36.59" width="30.83" height="30.83"/><rect class="cls-34" x="565.75" y="129.08" width="30.83" height="30.83"/><rect class="cls-34" x="565.75" y="36.59" width="30.83" height="30.83"/><rect class="cls-34" x="596.58" y="159.92" width="30.83" height="30.83"/><rect class="cls-34" x="596.58" y="129.08" width="30.83" height="30.83"/><rect class="cls-34" x="596.58" y="36.59" width="30.83" height="30.83"/><rect class="cls-34" x="627.42" y="159.92" width="30.83" height="30.83"/><rect class="cls-34" x="627.42" y="129.08" width="30.83" height="30.83"/><rect class="cls-34" x="627.42" y="98.25" width="30.83" height="30.83"/><rect class="cls-34" x="627.42" y="36.59" width="30.83" height="30.83"/><text class="cls-29" transform="translate(547.28 86.78)"><tspan x="0" y="0">5</tspan></text><text class="cls-24" transform="translate(547.28 148.44)"><tspan x="0" y="0">1</tspan></text><text class="cls-29" transform="translate(575.04 117.61)"><tspan x="0" y="0">10</tspan></text><text class="cls-22" transform="translate(608.94 86.78)"><tspan x="0" y="0">4</tspan></text><text class="cls-2" transform="translate(608.94 117.61)"><tspan x="0" y="0">3</tspan></text><text class="cls-2" transform="translate(608.94 117.61)"><tspan x="0" y="0">3</tspan></text><text class="cls-24" transform="translate(547.28 117.61)"><tspan x="0" y="0">1</tspan></text><text class="cls-29" transform="translate(547.28 86.78)"><tspan x="0" y="0">5</tspan></text><text class="cls-22" transform="translate(578.11 86.78)"><tspan x="0" y="0">4</tspan></text><text class="cls-22" transform="translate(639.78 86.78)"><tspan x="0" y="0">4</tspan></text><text class="cls-22" transform="translate(639.78 86.78)"><tspan x="0" y="0">4</tspan></text><text class="cls-29" transform="translate(575.04 117.61)"><tspan x="0" y="0">10</tspan></text><text class="cls-29" transform="translate(575.04 117.61)"><tspan x="0" y="0">10</tspan></text><text class="cls-29" transform="translate(547.28 86.78)"><tspan x="0" y="0">5</tspan></text><text class="cls-29" transform="translate(547.28 86.78)"><tspan x="0" y="0">5</tspan></text><text class="cls-29" transform="translate(547.28 86.78)"><tspan x="0" y="0">5</tspan></text><text class="cls-22" transform="translate(639.78 86.78)"><tspan x="0" y="0">4</tspan></text><text class="cls-22" transform="translate(608.94 86.78)"><tspan x="0" y="0">4</tspan></text><text class="cls-22" transform="translate(639.78 86.78)"><tspan x="0" y="0">4</tspan></text><text class="cls-29" transform="translate(575.04 117.61)"><tspan x="0" y="0">10</tspan></text><text class="cls-29" transform="translate(575.04 117.61)"><tspan x="0" y="0">10</tspan></text><text class="cls-29" transform="translate(575.04 117.61)"><tspan x="0" y="0">10</tspan></text><text class="cls-22" transform="translate(578.11 86.78)"><tspan x="0" y="0">4</tspan></text><text class="cls-24" transform="translate(578.11 179.27)"><tspan x="0" y="0">1</tspan></text><text class="cls-22" transform="translate(608.94 86.78)"><tspan x="0" y="0">4</tspan></text><text class="cls-22" transform="translate(608.94 86.78)"><tspan x="0" y="0">4</tspan></text><text class="cls-29" transform="translate(575.04 117.61)"><tspan x="0" y="0">10</tspan></text><text class="cls-29" transform="translate(575.04 117.61)"><tspan x="0" y="0">10</tspan></text><text class="cls-29" transform="translate(575.04 117.61)"><tspan x="0" y="0">10</tspan></text><text class="cls-22" transform="translate(578.11 86.78)"><tspan x="0" y="0">4</tspan></text><text class="cls-22" transform="translate(578.11 86.78)"><tspan x="0" y="0">4</tspan></text><text class="cls-2" transform="translate(608.94 117.61)"><tspan x="0" y="0">3</tspan></text><text class="cls-29" transform="translate(575.04 117.61)"><tspan x="0" y="0">10</tspan></text></g><g class="cls-47"><rect class="cls-20" x="663.73" y="36.59" width="123.33" height="154.16"/><rect class="cls-13" x="725.39" y="67.42" width="30.83" height="30.83"/><rect class="cls-34" x="725.39" y="67.42" width="30.83" height="30.83"/><rect class="cls-13" x="725.39" y="159.92" width="30.83" height="30.83"/><rect class="cls-34" x="725.39" y="159.92" width="30.83" height="30.83"/><rect class="cls-13" x="663.73" y="159.92" width="30.83" height="30.83"/><rect class="cls-34" x="663.73" y="159.92" width="30.83" height="30.83"/><rect class="cls-34" x="663.73" y="129.08" width="30.83" height="30.83"/><rect class="cls-34" x="663.73" y="98.25" width="30.83" height="30.83"/><rect class="cls-34" x="663.73" y="67.42" width="30.83" height="30.83"/><rect class="cls-34" x="663.73" y="36.59" width="30.83" height="30.83"/><rect class="cls-34" x="694.56" y="159.92" width="30.83" height="30.83"/><rect class="cls-34" x="694.56" y="129.08" width="30.83" height="30.83"/><rect class="cls-34" x="694.56" y="98.25" width="30.83" height="30.83"/><rect class="cls-34" x="694.56" y="67.42" width="30.83" height="30.83"/><rect class="cls-34" x="694.56" y="36.59" width="30.83" height="30.83"/><rect class="cls-34" x="725.39" y="129.08" width="30.83" height="30.83"/><rect class="cls-34" x="725.39" y="98.25" width="30.83" height="30.83"/><rect class="cls-34" x="725.39" y="36.59" width="30.83" height="30.83"/><rect class="cls-34" x="756.23" y="159.92" width="30.83" height="30.83"/><rect class="cls-34" x="756.23" y="129.08" width="30.83" height="30.83"/><rect class="cls-34" x="756.23" y="98.25" width="30.83" height="30.83"/><rect class="cls-34" x="756.23" y="67.42" width="30.83" height="30.83"/><rect class="cls-34" x="756.23" y="36.59" width="30.83" height="30.83"/><text class="cls-24" transform="translate(737.74 86.78)"><tspan x="0" y="0">1</tspan></text><text class="cls-24" transform="translate(737.74 179.27)"><tspan x="0" y="0">1</tspan></text><text class="cls-24" transform="translate(676.08 179.27)"><tspan x="0" y="0">1</tspan></text></g><g class="cls-46"><rect class="cls-20" x="277.3" y="9.87" width="123.33" height="26.71"/><rect class="cls-32" x="277.3" y="9.87" width="123.33" height="26.71"/><text class="cls-26" transform="translate(332.04 26.45)"><tspan class="cls-53" x="0" y="0">y</tspan><tspan x="4.33" y="0">es</tspan></text></g><g class="cls-52"><rect class="cls-20" x="406.11" y="9.87" width="123.33" height="26.71"/><rect class="cls-32" x="406.11" y="9.87" width="123.33" height="26.71"/><text class="cls-26" transform="translate(462.77 26.45)"><tspan x="0" y="0">no</tspan></text></g><g class="cls-50"><rect class="cls-20" x="534.92" y="9.87" width="123.33" height="26.71"/><rect class="cls-32" x="534.92" y="9.87" width="123.33" height="26.71"/><text class="cls-26" transform="translate(576.82 26.45)"><tspan x="0" y="0">not tested</tspan></text></g><g class="cls-51"><rect class="cls-20" x="663.73" y="9.87" width="123.33" height="26.71"/><rect class="cls-32" x="663.73" y="9.87" width="123.33" height="26.71"/><text class="cls-26" transform="translate(708.49 21.7)"><tspan x="0" y="0">negati</tspan><tspan class="cls-41" x="24.52" y="0">v</tspan><tspan class="cls-54" x="28.8" y="0">e</tspan></text><text class="cls-26" transform="translate(702.38 31.2)"><tspan x="0" y="0">relationship</tspan></text></g><line class="cls-33" x1="277.3" y1="190.75" x2="400.62" y2="190.75"/><line class="cls-31" x1="292.71" y1="193.49" x2="292.71" y2="190.75"/><line class="cls-31" x1="323.55" y1="193.49" x2="323.55" y2="190.75"/><line class="cls-31" x1="354.37" y1="193.49" x2="354.37" y2="190.75"/><line class="cls-31" x1="385.21" y1="193.49" x2="385.21" y2="190.75"/><text class="cls-27" transform="translate(250.58 246.93) rotate(-45)"><tspan x="0" y="0">climate and date</tspan></text><text class="cls-27" transform="translate(289.21 239.16) rotate(-45)"><tspan x="0" y="0">not measured</tspan></text><text class="cls-27" transform="translate(302.66 256.52) rotate(-45)"><tspan class="cls-40" x="0" y="0">v</tspan><tspan class="cls-59" x="4.27" y="0">egtati</tspan><tspan class="cls-55" x="26.28" y="0">v</tspan><tspan x="30.55" y="0">e phenology</tspan></text><text class="cls-27" transform="translate(343.5 246.52) rotate(-45)"><tspan class="cls-35" x="0" y="0">w</tspan><tspan x="6.41" y="0">ood phenology</tspan></text><line class="cls-33" x1="406.11" y1="190.75" x2="529.44" y2="190.75"/><line class="cls-31" x1="421.52" y1="193.49" x2="421.52" y2="190.75"/><line class="cls-31" x1="452.36" y1="193.49" x2="452.36" y2="190.75"/><line class="cls-31" x1="483.18" y1="193.49" x2="483.18" y2="190.75"/><line class="cls-31" x1="514.01" y1="193.49" x2="514.01" y2="190.75"/><text class="cls-27" transform="translate(379.39 246.93) rotate(-45)"><tspan x="0" y="0">climate and date</tspan></text><text class="cls-27" transform="translate(418.02 239.16) rotate(-45)"><tspan x="0" y="0">not measured</tspan></text><text class="cls-27" transform="translate(431.48 256.52) rotate(-45)"><tspan class="cls-40" x="0" y="0">v</tspan><tspan x="4.27" y="0">egtati</tspan><tspan class="cls-40" x="26.28" y="0">v</tspan><tspan x="30.55" y="0">e phenology</tspan></text><text class="cls-27" transform="translate(472.31 246.52) rotate(-45)"><tspan class="cls-56" x="0" y="0">w</tspan><tspan class="cls-49" x="6.41" y="0">ood phenology</tspan></text><line class="cls-33" x1="534.92" y1="190.75" x2="658.25" y2="190.75"/><line class="cls-31" x1="550.33" y1="193.49" x2="550.33" y2="190.75"/><line class="cls-31" x1="581.17" y1="193.49" x2="581.17" y2="190.75"/><line class="cls-31" x1="612" y1="193.49" x2="612" y2="190.75"/><line class="cls-31" x1="642.82" y1="193.49" x2="642.82" y2="190.75"/><text class="cls-27" transform="translate(508.2 246.94) rotate(-45)"><tspan x="0" y="0">climate and date</tspan></text><text class="cls-27" transform="translate(546.83 239.16) rotate(-45)"><tspan x="0" y="0">not measured</tspan></text><text class="cls-27" transform="translate(560.28 256.53) rotate(-45)"><tspan class="cls-40" x="0" y="0">v</tspan><tspan x="4.27" y="0">egtati</tspan><tspan class="cls-40" x="26.28" y="0">v</tspan><tspan x="30.55" y="0">e phenology</tspan></text><text class="cls-27" transform="translate(601.12 246.53) rotate(-45)"><tspan class="cls-56" x="0" y="0">w</tspan><tspan class="cls-49" x="6.41" y="0">ood phenology</tspan></text><line class="cls-33" x1="663.73" y1="190.75" x2="787.06" y2="190.75"/><line class="cls-31" x1="679.14" y1="193.49" x2="679.14" y2="190.75"/><line class="cls-31" x1="709.98" y1="193.49" x2="709.98" y2="190.75"/><line class="cls-31" x1="740.81" y1="193.49" x2="740.81" y2="190.75"/><line class="cls-31" x1="771.63" y1="193.49" x2="771.63" y2="190.75"/><text class="cls-27" transform="translate(637.02 246.93) rotate(-45)"><tspan x="0" y="0">climate and date</tspan></text><text class="cls-27" transform="translate(675.64 239.16) rotate(-45)"><tspan x="0" y="0">not measured</tspan></text><text class="cls-27" transform="translate(689.09 256.52) rotate(-45)"><tspan class="cls-40" x="0" y="0">v</tspan><tspan x="4.27" y="0">egtati</tspan><tspan class="cls-40" x="26.28" y="0">v</tspan><tspan x="30.55" y="0">e phenology</tspan></text><text class="cls-27" transform="translate(729.92 246.53) rotate(-45)"><tspan class="cls-56" x="0" y="0">w</tspan><tspan class="cls-49" x="6.41" y="0">ood phenology</tspan></text><line class="cls-33" x1="277.3" y1="190.75" x2="277.3" y2="36.58"/><line class="cls-31" x1="274.55" y1="175.33" x2="277.3" y2="175.33"/><line class="cls-31" x1="274.55" y1="144.5" x2="277.3" y2="144.5"/><line class="cls-31" x1="274.55" y1="113.67" x2="277.3" y2="113.67"/><line class="cls-31" x1="274.55" y1="82.83" x2="277.3" y2="82.83"/><line class="cls-31" x1="274.55" y1="52" x2="277.3" y2="52"/></svg>