<?xml version="1.0" encoding="UTF-8"?><svg id="Layer_1" xmlns="http://www.w3.org/2000/svg" viewBox="0 0 453.47 312.8"><defs><style>.cls-1,.cls-2,.cls-3,.cls-4,.cls-5{fill:none;stroke-miterlimit:10;}.cls-1,.cls-3{stroke-width:2px;}.cls-1,.cls-5{stroke:#3a53a4;}.cls-2{stroke:#231f20;}.cls-3{stroke:#cf2b27;}.cls-6{fill:#b83e26;}.cls-6,.cls-7,.cls-8,.cls-9{stroke-width:0px;}.cls-6,.cls-8{opacity:.4;}.cls-10{font-size:12px;}.cls-10,.cls-11{fill:#231f20;font-family:Helvetica, Helvetica;}.cls-7{fill:#cf2b27;}.cls-4{stroke:#000;}.cls-12{letter-spacing:-.11em;}.cls-8{fill:#faa51d;}.cls-9{fill:#3a53a4;}.cls-5{stroke-width:.75px;}.cls-11{font-size:10px;}</style></defs><rect class="cls-8" x="133.01" y=".16" width="13.4" height="271.12"/><path class="cls-1" d="M302.86,16.29c36.42-4.37,54.76,117.86,71.33,254.89"/><path class="cls-1" d="M302.86,16.29c-33.14,1.46-82.06,114.16-87.22,123.44"/><path class="cls-1" d="M215.64,139.73c-17.51,39.29-48.3,91.13-87.53,111.8"/><path class="cls-1" d="M128.11,251.53c-11.99,5.72-23.06,9.84-42.36,12.99"/><path class="cls-1" d="M22.68,271.17c26.25,0,48.16-3.54,63.07-6.66"/><path class="cls-7" d="M33.97,270.85c20.38-3.78,40.39-9.53,59.66-17.19,9.52-3.78,18.86-8.01,27.97-12.68,4.52-2.32,9-4.74,13.14-7.69s7.82-6.58,11.41-10.25c8.46-8.65,17.63-16.49,26.88-24.28,1.23-1.04-.54-2.8-1.77-1.77-8.1,6.82-16.2,13.65-23.73,21.1-3.7,3.67-7.2,7.57-11.23,10.88s-8.28,5.78-12.72,8.15c-18.03,9.62-37.13,17.33-56.7,23.2-11.03,3.31-22.24,6.01-33.56,8.11-1.58.29-.91,2.7.66,2.41h0Z"/><path class="cls-7" d="M173.63,197.13c9.3-5.09,16.27-13.22,22.64-21.5,7.36-9.56,14.79-19.14,21.74-29,3.87-5.49,7.44-11.18,10.31-17.26.68-1.45-1.47-2.72-2.16-1.26-4.98,10.57-12.1,19.88-19.11,29.16-3.68,4.88-7.36,9.76-11.06,14.64-3.14,4.15-6.35,8.26-9.9,12.06-4.03,4.31-8.53,8.17-13.72,11.01-1.41.77-.15,2.93,1.26,2.16h0Z"/><path class="cls-7" d="M228.39,130.93c4.92-6.19,10.9-11.4,17.15-16.2,3.1-2.38,6.26-4.68,9.42-6.97s6.56-4.67,10.22-6.34c7.64-3.48,16.34-3.3,24.55-3.47,8.82-.18,17.65-.25,26.47-.26,10.07-.01,20.15.05,30.22.12,1.61.01,1.61-2.49,0-2.5-18.15-.12-36.3-.23-54.44.1-8.38.15-17.26-.15-25.27,2.71-7.53,2.69-13.99,8.1-20.32,12.85-7.18,5.39-14.15,11.14-19.77,18.2-.99,1.25.77,3.03,1.77,1.77h0Z"/><path class="cls-7" d="M344.73,98.49c7.02.99,12.65,5.9,17.85,10.35s9.93,8.95,14.52,13.8c9.21,9.73,17.38,20.42,24.35,31.86,3.98,6.54,7.56,13.32,10.72,20.28.66,1.46,2.82.19,2.16-1.26-11.39-25.05-28.22-47.62-49.03-65.63-5.75-4.98-12.08-10.71-19.91-11.81-1.57-.22-2.25,2.19-.66,2.41h0Z"/><path class="cls-7" d="M412.52,174.23c3.63,12.04,8.17,23.81,13.58,35.17,2.65,5.56,5.58,11,7.79,16.75s3.37,11.87,4.28,18.01c1,6.79,1.85,13.64,4.1,20.16.52,1.51,2.94.86,2.41-.66-4.03-11.68-3.57-24.35-7.6-36.02-1.98-5.73-4.75-11.15-7.41-16.58-2.81-5.73-5.42-11.56-7.78-17.49-2.61-6.56-4.93-13.23-6.96-19.99-.46-1.54-2.88-.88-2.41.66h0Z"/><text class="cls-10" transform="translate(206.52 307.03)"><tspan class="cls-12" x="0" y="0">T</tspan><tspan x="6" y="0">emperature (°C)</tspan></text><text class="cls-10" transform="translate(10.3 174.15) rotate(-90)"><tspan x="0" y="0">Photosynthesis</tspan></text><line class="cls-4" x1="32.64" y1="271.65" x2="32.64" y2="278.31"/><line class="cls-4" x1="101.3" y1="271.95" x2="101.3" y2="278.62"/><line class="cls-4" x1="305.75" y1="271.62" x2="305.75" y2="278.28"/><line class="cls-4" x1="169.97" y1="271.95" x2="169.97" y2="278.62"/><line class="cls-4" x1="443.48" y1="271.95" x2="443.48" y2="278.62"/><line class="cls-4" x1="237.02" y1="271.65" x2="237.02" y2="278.31"/><line class="cls-4" x1="374.19" y1="272.17" x2="374.19" y2="278.84"/><text class="cls-10" transform="translate(22.18 288.2)"><tspan x="0" y="0">-10</tspan></text><text class="cls-10" transform="translate(436.12 288.2)"><tspan x="0" y="0">50</tspan></text><text class="cls-10" transform="translate(367.9 288.2)"><tspan x="0" y="0">40</tspan></text><text class="cls-10" transform="translate(301.37 288.2)"><tspan x="0" y="0">30</tspan></text><text class="cls-10" transform="translate(231.14 288.2)"><tspan x="0" y="0">20</tspan></text><text class="cls-10" transform="translate(163.55 288.2)"><tspan x="0" y="0">10</tspan></text><text class="cls-10" transform="translate(98.42 288.2)"><tspan x="0" y="0">0</tspan></text><text/><rect class="cls-6" x="209.81" y=".16" width="13.4" height="271.12"/><line class="cls-3" x1="353.53" y1="12.17" x2="375.53" y2="12.17"/><line class="cls-1" x1="353.53" y1="28.17" x2="375.53" y2="28.17"/><text class="cls-11" transform="translate(381.54 31.65)"><tspan x="0" y="0">Rezende &amp; </tspan><tspan x="0" y="12">Bozinovic 2019</tspan></text><text class="cls-11" transform="translate(382.42 15.75)"><tspan x="0" y="0">Larcher</tspan></text><line class="cls-5" x1="120.27" y1="194.61" x2="135.46" y2="214.72"/><polygon class="cls-9" points="138.65 218.95 131.72 214.83 135.22 214.4 136.59 211.15 138.65 218.95"/><line class="cls-5" x1="195.82" y1="105.71" x2="211.01" y2="125.82"/><polygon class="cls-9" points="214.2 130.05 207.27 125.93 210.77 125.51 212.13 122.26 214.2 130.05"/><text class="cls-11" transform="translate(60.29 181.72)"><tspan x="0" y="0">Small gains </tspan><tspan x="-18.35" y="12">at cool temperatures</tspan></text><text class="cls-11" transform="translate(150.07 79.01)"><tspan x="0" y="0">Larger gains </tspan><tspan x="10.01" y="12">at warm </tspan><tspan x="-.27" y="24">temperatures</tspan></text><text/><rect class="cls-2" x="21.06" y=".5" width="431.91" height="271.15"/></svg>